<?xml version="1.0" encoding="UTF-8"?>
<svg id="Layer_2" data-name="Layer 2" xmlns="http://www.w3.org/2000/svg" viewBox="0 0 530 607.9">
  <defs>
    <style>
      .cls-1, .cls-2 {
        fill-rule: evenodd;
      }

      .cls-1, .cls-2, .cls-3, .cls-4, .cls-5, .cls-6, .cls-7, .cls-8 {
        stroke-width: 0px;
      }

      .cls-1, .cls-8 {
        fill: #e3e4e8;
      }

      .cls-2 {
        fill: #edebfe;
      }

      .cls-3 {
        fill: #5c6270;
      }

      .cls-4 {
        fill: #acb0b9;
      }

      .cls-5 {
        fill: #9061f9;
      }

      .cls-6 {
        fill: #6b707e;
      }

      .cls-7 {
        fill: #9196a1;
      }
    </style>
  </defs>
  <g id="Layer_1-2" data-name="Layer 1">
    <path class="cls-4" d="m215,240.65h100v255.35h-100v-255.35Z"/>
    <path class="cls-1" d="m199,142.65h130c2.76,0,5,2.24,5,5v44c0,2.76-2.24,5-5,5h-51.3c-.06.13-.12.27-.19.4l-9.2,17.78c-1.26,2.42-3.31,2.42-4.57,0l-9.26-17.78c-.07-.13-.13-.27-.19-.4h-55.3c-2.76,0-5-2.24-5-5v-44c0-2.76,2.24-5,5-5Z"/>
    <path class="cls-8" d="m35,98h100v398H35V98Z"/>
    <path class="cls-1" d="m20,0h130c2.76,0,5,2.24,5,5v44c0,2.76-2.24,5-5,5h-51.3c-.05.13-.12.27-.19.4l-9.2,17.78c-1.26,2.42-3.31,2.42-4.57,0l-9.26-17.78c-.07-.13-.13-.27-.19-.4H20c-2.76,0-5-2.24-5-5V5c0-2.76,2.24-5,5-5Z"/>
    <path class="cls-2" d="m380,277.65h130c2.76,0,5,2.24,5,5v44c0,2.76-2.24,5-5,5h-51.3c-.06.13-.12.27-.19.4l-9.2,17.78c-1.26,2.42-3.31,2.42-4.57,0l-9.26-17.78c-.07-.14-.13-.27-.19-.4h-55.3c-2.76,0-5-2.24-5-5v-44c0-2.76,2.24-5,5-5Z"/>
    <path class="cls-7" d="m0,496h530v4H0v-4Z"/>
    <path class="cls-5" d="m395,375.65h100v120.35h-100v-120.35Z"/>
    <path class="cls-5" d="m390.34,516h4.08v18.25h8.67v3.36h-12.75v-21.61Zm24.2,20.36c-1.4,1.09-2.91,1.63-4.52,1.63-.73,0-1.4-.12-2.01-.35-.61-.23-1.13-.54-1.57-.94-.44-.42-.79-.91-1.04-1.48-.25-.59-.38-1.23-.38-1.92,0-.82.18-1.56.53-2.23.38-.69.9-1.28,1.57-1.76s1.47-.86,2.39-1.13c.92-.27,1.95-.41,3.08-.41.31,0,.63.01.94.03.31,0,.65.01,1.01.03v-.72c0-.73-.27-1.33-.82-1.79-.54-.46-1.26-.69-2.14-.69-.82,0-1.66.13-2.54.38-.88.25-1.77.63-2.67,1.13v-3.33c.96-.44,1.92-.76,2.86-.97.94-.21,1.88-.31,2.83-.31s1.83.15,2.61.44c.77.27,1.43.67,1.98,1.19.54.5.96,1.11,1.26,1.82.31.71.47,1.49.47,2.32v10.3h-3.83v-1.26Zm-5.56-3.61c0,.63.22,1.14.66,1.54.44.4,1.01.6,1.7.6.54,0,1.09-.14,1.63-.41.57-.27,1.09-.65,1.57-1.13v-3.08c-.57-.06-1.15-.09-1.76-.09-1.13,0-2.05.24-2.76.72-.69.48-1.04,1.1-1.04,1.85Zm13.68-10.84h4.02v1.26c.69-.57,1.4-.97,2.14-1.23.75-.27,1.53-.41,2.32-.41.94,0,1.79.2,2.54.6.77.4,1.4.98,1.88,1.76,1.57-1.57,3.31-2.36,5.21-2.36.77,0,1.48.14,2.1.41.65.27,1.2.65,1.66,1.13.46.48.82,1.06,1.07,1.73.25.67.38,1.41.38,2.23v10.59h-4.02v-9.96c0-.75-.23-1.37-.69-1.85-.44-.5-1.03-.75-1.76-.75-.52,0-1.06.14-1.6.41-.54.25-1.07.65-1.57,1.19v10.96h-4.02v-9.96c0-.75-.23-1.37-.69-1.85-.46-.5-1.06-.75-1.79-.75-.52,0-1.06.14-1.6.41-.54.25-1.07.65-1.57,1.19v10.96h-4.02v-15.71Zm38.6,7.85c0-.71-.09-1.36-.28-1.95s-.45-1.09-.79-1.51c-.34-.42-.74-.74-1.23-.97-.46-.23-.97-.35-1.54-.35-1.15,0-2.2.47-3.14,1.41v6.72c.94.94,1.99,1.41,3.14,1.41.57,0,1.08-.12,1.54-.35.48-.23.89-.55,1.23-.97.34-.42.6-.92.79-1.51s.28-1.24.28-1.95Zm-10.99-14.73h4.02v7.95c1.28-.96,2.61-1.45,3.99-1.45,1.05,0,2,.21,2.86.63.88.4,1.63.96,2.26,1.7.63.71,1.11,1.57,1.45,2.58.36,1.01.53,2.12.53,3.33s-.18,2.32-.53,3.33c-.34,1.01-.82,1.87-1.45,2.61-.63.71-1.38,1.28-2.26,1.7-.86.4-1.81.6-2.86.6-1.38,0-2.71-.49-3.99-1.48v1.1h-4.02v-22.59Zm21.49,14.73c0,1.42.36,2.58,1.07,3.46.71.88,1.64,1.32,2.8,1.32s2.19-.47,3.11-1.41v-6.72c-.92-.94-1.96-1.41-3.11-1.41s-2.08.44-2.8,1.32c-.71.88-1.07,2.03-1.07,3.46Zm11.03,7.85h-4.05v-1.1c-1.24.98-2.57,1.48-3.99,1.48-1.05,0-2.01-.2-2.89-.6-.86-.42-1.6-.98-2.23-1.7-.63-.73-1.12-1.6-1.48-2.61-.34-1.01-.5-2.12-.5-3.33s.17-2.32.5-3.33c.36-1.01.85-1.86,1.48-2.58.63-.73,1.37-1.3,2.23-1.7.88-.42,1.84-.63,2.89-.63,1.4,0,2.73.48,3.99,1.45v-7.95h4.05v22.59Zm12.81-1.26c-1.4,1.09-2.91,1.63-4.52,1.63-.73,0-1.4-.12-2.01-.35-.61-.23-1.13-.54-1.57-.94-.44-.42-.79-.91-1.04-1.48-.25-.59-.38-1.23-.38-1.92,0-.82.18-1.56.53-2.23.38-.69.9-1.28,1.57-1.76s1.47-.86,2.39-1.13c.92-.27,1.95-.41,3.08-.41.31,0,.63.01.94.03.31,0,.65.01,1.01.03v-.72c0-.73-.27-1.33-.82-1.79s-1.26-.69-2.14-.69c-.82,0-1.66.13-2.54.38-.88.25-1.77.63-2.67,1.13v-3.33c.96-.44,1.92-.76,2.86-.97.94-.21,1.88-.31,2.83-.31s1.83.15,2.61.44c.77.27,1.43.67,1.98,1.19.54.5.96,1.11,1.26,1.82.31.71.47,1.49.47,2.32v10.3h-3.83v-1.26Zm-5.56-3.61c0,.63.22,1.14.66,1.54.44.4,1.01.6,1.7.6.54,0,1.09-.14,1.63-.41.57-.27,1.09-.65,1.57-1.13v-3.08c-.57-.06-1.15-.09-1.76-.09-1.13,0-2.05.24-2.76.72-.69.48-1.04,1.1-1.04,1.85Z"/>
    <path class="cls-3" d="m254.86,536.23c-1.26.57-2.51,1.01-3.77,1.32-1.24.29-2.48.44-3.74.44-1.61,0-3.09-.27-4.43-.82-1.34-.57-2.5-1.34-3.49-2.32-.96-.98-1.72-2.16-2.26-3.52-.52-1.38-.79-2.89-.79-4.52s.26-3.13.79-4.49c.54-1.38,1.3-2.57,2.26-3.55.96-.98,2.1-1.75,3.42-2.29,1.34-.57,2.81-.85,4.4-.85,2.26,0,4.49.58,6.69,1.73v3.83c-2.07-1.47-4.1-2.2-6.09-2.2-1.07,0-2.05.2-2.95.6-.9.38-1.68.91-2.32,1.6s-1.15,1.52-1.51,2.48c-.36.94-.53,1.99-.53,3.14s.17,2.21.5,3.17c.36.94.85,1.76,1.48,2.45s1.37,1.24,2.23,1.63c.88.38,1.84.57,2.89.57.54,0,1.1-.06,1.66-.19.57-.15,1.13-.34,1.7-.57v-4.81h-4.59v-3.11h8.45v10.27Zm3.43-9.42c0-1.63.26-3.13.79-4.49.52-1.38,1.26-2.57,2.2-3.55.94-.98,2.06-1.75,3.36-2.29,1.3-.57,2.72-.85,4.27-.85,2.12,0,4.19.52,6.22,1.57v3.71c-.94-.59-1.88-1.04-2.83-1.35-.92-.31-1.82-.47-2.7-.47-1.05,0-2.01.19-2.89.57-.86.38-1.6.91-2.23,1.6-.61.67-1.09,1.49-1.45,2.45-.34.94-.5,1.98-.5,3.11s.17,2.17.5,3.11c.36.94.84,1.76,1.45,2.45.63.69,1.37,1.23,2.23,1.6.88.38,1.84.57,2.89.57.88,0,1.78-.16,2.7-.47.94-.31,1.88-.76,2.83-1.35v3.71c-2.03,1.05-4.1,1.57-6.22,1.57-1.55,0-2.97-.27-4.27-.82-1.3-.57-2.42-1.34-3.36-2.32-.94-.98-1.68-2.16-2.2-3.52-.52-1.38-.79-2.89-.79-4.52Zm21.11-10.81h7.63c1.09,0,2.09.18,3.02.53.94.34,1.74.81,2.39,1.41.67.61,1.19,1.34,1.57,2.2.38.84.57,1.77.57,2.8s-.19,1.97-.57,2.83c-.38.84-.9,1.56-1.57,2.17-.65.61-1.45,1.08-2.39,1.41-.92.34-1.93.5-3.02.5h-3.61v7.76h-4.02v-21.61Zm4.02,10.59h3.05c1.17,0,2.13-.34,2.86-1.01s1.1-1.55,1.1-2.64-.37-2-1.1-2.67-1.69-1.01-2.86-1.01h-3.05v7.32Z"/>
    <path class="cls-3" d="m59.8,516h3.52l8.51,21.61h-4.05l-1.98-5.18h-8.51l-1.98,5.18h-4.02l8.51-21.61Zm-1.35,13.35h6.22l-3.11-8.2-3.11,8.2Zm36.78,8.26h-3.71l-5.12-16.37-5.09,16.37h-3.71l-7.38-21.61h4.12l5.12,16.37,5.12-16.37h3.71l5.09,16.37,5.09-16.37h4.15l-7.38,21.61Zm9.61-4.87c2.03,1.3,4.04,1.95,6.03,1.95,1.19,0,2.16-.28,2.89-.85.75-.57,1.13-1.31,1.13-2.23,0-.73-.26-1.31-.79-1.73-.5-.44-1.15-.81-1.95-1.1-.77-.31-1.61-.61-2.51-.88-.9-.29-1.75-.68-2.54-1.16-.77-.48-1.42-1.1-1.95-1.85-.5-.75-.75-1.76-.75-3.02,0-.92.19-1.76.57-2.51.38-.77.9-1.43,1.57-1.98.69-.57,1.51-.99,2.45-1.29.96-.31,2.01-.47,3.14-.47,1.93,0,3.86.4,5.81,1.19v3.74c-.92-.54-1.85-.95-2.8-1.23-.92-.27-1.83-.41-2.73-.41-1.15,0-2.09.26-2.83.79-.71.52-1.07,1.23-1.07,2.1,0,.71.25,1.28.75,1.7.52.4,1.17.75,1.95,1.07.8.29,1.64.59,2.54.88.9.27,1.74.66,2.51,1.16.8.48,1.45,1.11,1.95,1.88.52.77.79,1.79.79,3.05,0,.94-.2,1.81-.6,2.61-.38.8-.91,1.48-1.6,2.04-.69.57-1.52,1.01-2.48,1.32-.96.31-2.02.47-3.17.47-1.05,0-2.11-.13-3.17-.38-1.05-.23-2.09-.59-3.14-1.07v-3.8Z"/>
    <g>
      <path class="cls-6" d="m118.64,572.08h2.21v4.83h5.42v-4.83h2.23v11.7h-2.23v-5.05h-5.42v5.05h-2.21v-11.7Z"/>
      <path class="cls-6" d="m129.91,579.53c0-.66.11-1.26.32-1.8.22-.54.52-1.01.91-1.4.39-.39.85-.7,1.39-.92.53-.22,1.12-.33,1.77-.33s1.24.11,1.77.33c.53.22.99.53,1.38.92.39.39.69.86.9,1.4.21.54.32,1.14.32,1.8s-.11,1.24-.32,1.79c-.22.55-.52,1.02-.9,1.41-.38.39-.84.7-1.38.92-.53.22-1.12.33-1.77.33s-1.24-.11-1.77-.33c-.53-.22-1-.53-1.39-.92-.39-.39-.69-.86-.91-1.41-.21-.55-.32-1.15-.32-1.79Zm2.23,0c0,.4.05.76.16,1.08.11.32.25.6.44.83.19.23.41.41.68.54.27.13.56.2.88.2s.61-.06.87-.2c.26-.13.48-.31.67-.54.19-.23.33-.5.44-.83.11-.32.16-.68.16-1.08s-.05-.74-.16-1.07c-.11-.33-.25-.61-.44-.83-.19-.23-.41-.4-.67-.54-.26-.13-.55-.2-.87-.2s-.61.07-.88.2c-.27.13-.49.31-.68.54-.19.23-.33.5-.44.83-.11.33-.16.69-.16,1.07Z"/>
      <path class="cls-6" d="m147.35,583.78h-2.18v-.75c-.77.63-1.59.95-2.46.95-.44,0-.85-.08-1.22-.23s-.69-.37-.96-.64c-.27-.27-.47-.59-.62-.97s-.22-.78-.22-1.22v-5.64h2.18v5.25c0,.44.14.81.42,1.11.28.29.64.44,1.08.44.63,0,1.24-.3,1.82-.9v-5.9h2.18v8.5Z"/>
      <path class="cls-6" d="m149.02,575.28h2.18v.85c.63-.7,1.33-1.05,2.09-1.05.12,0,.24,0,.36.02.11.01.23.03.36.07v1.94c-.24-.07-.49-.1-.76-.1-.36,0-.72.09-1.08.28-.36.19-.68.46-.96.83v5.68h-2.18v-8.5Z"/>
      <path class="cls-6" d="m154.92,571.56h2.18v12.22h-2.18v-12.22Z"/>
      <path class="cls-6" d="m161.41,587.5h-2.11l1.63-4.03-3.25-8.19h2.23l2.04,5.58,2.06-5.58h2.23l-4.83,12.22Z"/>
      <path class="cls-6" d="m169.52,579.53c0-.66.11-1.26.32-1.8.22-.54.52-1.01.9-1.4.38-.39.84-.7,1.38-.92.53-.22,1.12-.33,1.77-.33.85,0,1.71.2,2.57.59v1.96c-.75-.49-1.47-.73-2.18-.73-.37,0-.71.07-1.02.2-.31.13-.57.31-.8.54-.23.23-.4.5-.53.83-.12.33-.19.69-.19,1.07s.06.74.19,1.06c.12.32.3.6.53.83s.49.41.8.54c.31.13.65.2,1.02.2.7,0,1.43-.24,2.18-.73v1.96c-.86.4-1.72.59-2.57.59-.65,0-1.24-.11-1.77-.33-.53-.22-.99-.53-1.38-.92-.39-.39-.69-.86-.9-1.41-.21-.55-.32-1.15-.32-1.79Z"/>
      <path class="cls-6" d="m176.92,579.53c0-.66.11-1.26.32-1.8.22-.54.52-1.01.91-1.4.39-.39.85-.7,1.39-.92.53-.22,1.12-.33,1.77-.33s1.24.11,1.77.33c.53.22.99.53,1.38.92.39.39.69.86.9,1.4.21.54.32,1.14.32,1.8s-.11,1.24-.32,1.79c-.22.55-.52,1.02-.9,1.41-.38.39-.84.7-1.38.92-.53.22-1.12.33-1.77.33s-1.24-.11-1.77-.33c-.53-.22-1-.53-1.39-.92-.39-.39-.69-.86-.91-1.41-.21-.55-.32-1.15-.32-1.79Zm2.23,0c0,.4.05.76.16,1.08.11.32.25.6.44.83.19.23.41.41.68.54.27.13.56.2.88.2s.61-.06.87-.2c.26-.13.48-.31.67-.54.19-.23.33-.5.44-.83.11-.32.16-.68.16-1.08s-.05-.74-.16-1.07c-.11-.33-.25-.61-.44-.83-.19-.23-.41-.4-.67-.54-.26-.13-.55-.2-.87-.2s-.61.07-.88.2c-.27.13-.49.31-.68.54-.19.23-.33.5-.44.83-.11.33-.16.69-.16,1.07Z"/>
      <path class="cls-6" d="m186.43,581.48c.84.52,1.66.78,2.46.78.38,0,.7-.09.93-.26.24-.18.36-.4.36-.67,0-.24-.1-.42-.29-.56s-.44-.25-.73-.36c-.29-.1-.61-.21-.95-.32-.34-.11-.66-.26-.95-.45-.29-.19-.54-.43-.73-.74s-.29-.71-.29-1.21c0-.38.08-.74.24-1.06.16-.32.38-.6.67-.82s.63-.41,1.03-.54c.4-.13.83-.2,1.31-.2.82,0,1.62.16,2.41.49v1.89c-.74-.44-1.49-.66-2.26-.66-.36,0-.66.08-.88.24-.23.16-.34.37-.34.63,0,.23.1.4.29.53.19.12.44.24.73.34.29.1.61.21.95.32s.66.27.95.46c.29.19.54.44.73.76.19.31.29.72.29,1.23,0,.4-.08.76-.25,1.09-.17.33-.39.61-.68.85-.29.24-.64.42-1.05.55-.41.13-.86.2-1.35.2-.84,0-1.71-.19-2.6-.58v-1.92Z"/>
      <path class="cls-6" d="m196.21,575.28h2.45v1.75h-2.45v3.93c0,.35.11.64.34.87s.53.34.9.34c.35,0,.75-.11,1.21-.34v1.8c-.61.24-1.21.36-1.78.36-.42,0-.8-.07-1.15-.2-.35-.14-.64-.33-.89-.57-.25-.24-.45-.53-.59-.87s-.21-.7-.21-1.1v-4.22h-1.46v-1.75h1.46v-2.4h2.18v2.4Z"/>
      <path class="cls-6" d="m203.33,575.28h2.18v.58c.69-.52,1.41-.78,2.16-.78.57,0,1.08.11,1.55.33.47.22.88.53,1.22.92.34.39.6.86.79,1.4.19.54.28,1.14.28,1.8s-.09,1.26-.28,1.8c-.19.54-.45,1.01-.79,1.4-.34.39-.75.7-1.22.92-.47.22-.99.33-1.55.33-.75,0-1.47-.27-2.16-.8v4.32h-2.18v-12.22Zm5.95,4.25c0-.38-.05-.74-.15-1.05-.1-.32-.24-.59-.43-.82-.18-.23-.4-.4-.65-.53-.25-.12-.54-.19-.84-.19-.62,0-1.19.25-1.7.76v3.64c.51.51,1.08.76,1.7.76.31,0,.59-.06.84-.19.25-.12.47-.3.65-.53.18-.23.32-.5.43-.82.1-.32.15-.67.15-1.05Z"/>
      <path class="cls-6" d="m212.02,579.46c0-.65.1-1.23.31-1.77.21-.53.5-.99.88-1.39.37-.39.82-.69,1.33-.91s1.07-.32,1.68-.32c.56,0,1.06.11,1.52.31.46.21.85.5,1.18.88.33.37.58.82.77,1.34.18.52.27,1.09.27,1.72v.38c0,.13-.01.27-.03.42h-5.76c.07.65.34,1.17.81,1.57.47.4,1.06.6,1.78.6.4,0,.81-.07,1.23-.2.42-.14.86-.33,1.3-.6v1.82c-.97.44-1.94.66-2.89.66-.65,0-1.24-.11-1.77-.33-.53-.22-.99-.53-1.38-.93-.39-.4-.69-.88-.9-1.43-.21-.55-.32-1.16-.32-1.83Zm5.85-.75c-.03-.58-.21-1.05-.53-1.41-.32-.36-.72-.54-1.21-.54-.53,0-.98.18-1.34.54-.36.36-.57.83-.63,1.42h3.71Z"/>
      <path class="cls-6" d="m220.98,575.28h2.18v.85c.63-.7,1.33-1.05,2.09-1.05.12,0,.24,0,.36.02.11.01.23.03.36.07v1.94c-.24-.07-.49-.1-.76-.1-.36,0-.72.09-1.08.28-.36.19-.68.46-.96.83v5.68h-2.18v-8.5Z"/>
      <path class="cls-6" d="m230.48,572.08h1.92l5.85,8.14v-8.14h2.09v11.7h-1.94l-5.83-8.14v8.14h-2.09v-11.7Z"/>
      <path class="cls-6" d="m247.72,583.78h-1.9l-4.61-11.7h2.28l3.28,8.64,3.26-8.64h2.29l-4.61,11.7Z"/>
      <path class="cls-6" d="m253.21,572.08h2.21v11.7h-2.21v-11.7Z"/>
      <path class="cls-6" d="m257.77,572.08h4.23c.84,0,1.61.14,2.31.43.7.29,1.31.69,1.81,1.21.5.52.9,1.13,1.18,1.85.28.72.42,1.5.42,2.35s-.14,1.63-.42,2.35c-.28.72-.68,1.34-1.18,1.85-.5.52-1.11.92-1.81,1.21-.7.29-1.47.43-2.31.43h-4.23v-11.7Zm2.21,9.88h1.9c.52,0,1-.1,1.45-.3.44-.2.82-.47,1.13-.83.31-.35.55-.77.73-1.27.18-.49.26-1.04.26-1.64s-.09-1.13-.26-1.63c-.18-.5-.42-.92-.73-1.27-.31-.35-.69-.63-1.13-.82-.44-.2-.92-.3-1.45-.3h-1.9v8.06Z"/>
      <path class="cls-6" d="m269.29,572.08h2.21v11.7h-2.21v-11.7Z"/>
      <path class="cls-6" d="m276.99,572.08h1.9l4.61,11.7h-2.19l-1.07-2.8h-4.61l-1.07,2.8h-2.18l4.61-11.7Zm-.73,7.23h3.37l-1.68-4.44-1.68,4.44Z"/>
      <path class="cls-6" d="m290.25,572.08h1.9l4.61,11.7h-2.19l-1.07-2.8h-4.61l-1.07,2.8h-2.18l4.61-11.7Zm-.73,7.23h3.37l-1.68-4.44-1.68,4.44Z"/>
      <path class="cls-6" d="m300.64,574.48l-2.86,1.58v-2.01l3.6-1.97h1.48v11.7h-2.23v-9.3Z"/>
      <path class="cls-6" d="m305.36,577.93c0-.9.11-1.71.32-2.46s.51-1.38.9-1.91c.38-.53.85-.95,1.38-1.24s1.13-.44,1.79-.44,1.24.15,1.77.44,1,.71,1.38,1.24c.38.53.68,1.17.9,1.91s.32,1.56.32,2.46-.11,1.71-.32,2.46-.51,1.38-.9,1.91c-.38.53-.85.95-1.38,1.24-.54.29-1.13.44-1.77.44s-1.25-.15-1.79-.44c-.54-.29-1-.71-1.38-1.24-.38-.53-.68-1.17-.9-1.91s-.32-1.56-.32-2.46Zm2.18,0c0,.63.05,1.21.15,1.73s.25.95.44,1.32c.19.36.43.64.7.84.27.2.58.3.92.3s.63-.1.91-.3c.27-.2.51-.48.7-.84.19-.36.34-.8.44-1.32s.15-1.09.15-1.73-.05-1.21-.15-1.73-.25-.96-.44-1.32c-.19-.36-.43-.64-.7-.84-.27-.2-.58-.3-.91-.3s-.65.1-.92.3c-.27.2-.51.48-.7.84-.19.36-.34.8-.44,1.32s-.15,1.09-.15,1.73Z"/>
      <path class="cls-6" d="m314.22,577.93c0-.9.11-1.71.32-2.46s.51-1.38.9-1.91c.38-.53.85-.95,1.38-1.24s1.13-.44,1.79-.44,1.24.15,1.77.44,1,.71,1.38,1.24c.38.53.68,1.17.9,1.91s.32,1.56.32,2.46-.11,1.71-.32,2.46-.51,1.38-.9,1.91c-.38.53-.85.95-1.38,1.24-.54.29-1.13.44-1.77.44s-1.25-.15-1.79-.44c-.54-.29-1-.71-1.38-1.24-.38-.53-.68-1.17-.9-1.91s-.32-1.56-.32-2.46Zm2.18,0c0,.63.05,1.21.15,1.73s.25.95.44,1.32c.19.36.43.64.7.84.27.2.58.3.92.3s.63-.1.91-.3c.27-.2.51-.48.7-.84.19-.36.34-.8.44-1.32s.15-1.09.15-1.73-.05-1.21-.15-1.73-.25-.96-.44-1.32c-.19-.36-.43-.64-.7-.84-.27-.2-.58-.3-.91-.3s-.65.1-.92.3c-.27.2-.51.48-.7.84-.19.36-.34.8-.44,1.32s-.15,1.09-.15,1.73Z"/>
      <path class="cls-6" d="m329.67,573.9h-3.55v-1.82h9.32v1.82h-3.54v9.88h-2.23v-9.88Z"/>
      <path class="cls-6" d="m334.55,579.46c0-.65.1-1.23.31-1.77.21-.53.5-.99.88-1.39.37-.39.82-.69,1.33-.91s1.07-.32,1.68-.32c.56,0,1.06.11,1.52.31.46.21.85.5,1.18.88.33.37.58.82.77,1.34.18.52.27,1.09.27,1.72v.38c0,.13-.01.27-.03.42h-5.76c.07.65.34,1.17.81,1.57.47.4,1.06.6,1.78.6.4,0,.81-.07,1.23-.2.42-.14.86-.33,1.3-.6v1.82c-.97.44-1.94.66-2.89.66-.65,0-1.24-.11-1.77-.33-.53-.22-.99-.53-1.38-.93-.39-.4-.69-.88-.9-1.43-.21-.55-.32-1.16-.32-1.83Zm5.85-.75c-.03-.58-.21-1.05-.53-1.41-.32-.36-.72-.54-1.21-.54-.53,0-.98.18-1.34.54-.36.36-.57.83-.63,1.42h3.71Z"/>
      <path class="cls-6" d="m343.51,575.28h2.18v.73c.78-.62,1.6-.94,2.47-.94.44,0,.84.07,1.21.22.37.15.69.36.96.63.27.27.48.59.63.97.15.37.22.79.22,1.24v5.64h-2.18v-5.25c0-.45-.14-.82-.42-1.11-.28-.29-.64-.43-1.08-.43-.65,0-1.25.3-1.82.9v5.9h-2.18v-8.5Z"/>
      <path class="cls-6" d="m352.45,581.48c.84.52,1.66.78,2.46.78.38,0,.7-.09.93-.26.24-.18.36-.4.36-.67,0-.24-.1-.42-.29-.56s-.44-.25-.73-.36c-.29-.1-.61-.21-.95-.32-.34-.11-.66-.26-.95-.45-.29-.19-.54-.43-.73-.74s-.29-.71-.29-1.21c0-.38.08-.74.24-1.06.16-.32.38-.6.67-.82s.63-.41,1.03-.54c.4-.13.83-.2,1.31-.2.82,0,1.62.16,2.41.49v1.89c-.74-.44-1.49-.66-2.26-.66-.36,0-.66.08-.88.24-.23.16-.34.37-.34.63,0,.23.1.4.29.53.19.12.44.24.73.34.29.1.61.21.95.32s.66.27.95.46c.29.19.54.44.73.76.19.31.29.72.29,1.23,0,.4-.08.76-.25,1.09-.17.33-.39.61-.68.85-.29.24-.64.42-1.05.55-.41.13-.86.2-1.35.2-.84,0-1.71-.19-2.6-.58v-1.92Z"/>
      <path class="cls-6" d="m358.9,579.53c0-.66.11-1.26.32-1.8.22-.54.52-1.01.91-1.4.39-.39.85-.7,1.39-.92.53-.22,1.12-.33,1.77-.33s1.24.11,1.77.33c.53.22.99.53,1.38.92.39.39.69.86.9,1.4.21.54.32,1.14.32,1.8s-.11,1.24-.32,1.79c-.22.55-.52,1.02-.9,1.41-.38.39-.84.7-1.38.92-.53.22-1.12.33-1.77.33s-1.24-.11-1.77-.33c-.53-.22-1-.53-1.39-.92-.39-.39-.69-.86-.91-1.41-.21-.55-.32-1.15-.32-1.79Zm2.23,0c0,.4.05.76.16,1.08.11.32.25.6.44.83.19.23.41.41.68.54.27.13.56.2.88.2s.61-.06.87-.2c.26-.13.48-.31.67-.54.19-.23.33-.5.44-.83.11-.32.16-.68.16-1.08s-.05-.74-.16-1.07c-.11-.33-.25-.61-.44-.83-.19-.23-.41-.4-.67-.54-.26-.13-.55-.2-.87-.2s-.61.07-.88.2c-.27.13-.49.31-.68.54-.19.23-.33.5-.44.83-.11.33-.16.69-.16,1.07Z"/>
      <path class="cls-6" d="m368.74,575.28h2.18v.85c.63-.7,1.33-1.05,2.09-1.05.12,0,.24,0,.36.02.11.01.23.03.36.07v1.94c-.24-.07-.49-.1-.76-.1-.36,0-.72.09-1.08.28-.36.19-.68.46-.96.83v5.68h-2.18v-8.5Z"/>
      <path class="cls-6" d="m377.46,577.93c0-.88.14-1.7.42-2.44s.68-1.38,1.19-1.91c.51-.53,1.12-.95,1.82-1.25.7-.3,1.47-.45,2.31-.45,1.14,0,2.27.28,3.37.85v2.01c-.51-.32-1.02-.56-1.52-.73-.5-.17-1-.25-1.47-.25-.57,0-1.09.1-1.56.31-.47.2-.87.49-1.21.86s-.59.81-.78,1.33c-.19.52-.28,1.08-.28,1.69s.09,1.17.28,1.68c.19.51.45.95.78,1.33s.74.66,1.21.87c.47.2.99.31,1.56.31.48,0,.97-.08,1.47-.25.5-.17,1.01-.41,1.52-.73v2.01c-1.1.57-2.22.85-3.37.85-.84,0-1.61-.15-2.31-.45-.7-.3-1.31-.72-1.82-1.25-.51-.53-.91-1.17-1.19-1.91s-.42-1.56-.42-2.44Z"/>
      <path class="cls-6" d="m386.98,579.53c0-.66.11-1.26.32-1.8.22-.54.52-1.01.91-1.4.39-.39.85-.7,1.39-.92.53-.22,1.12-.33,1.77-.33s1.24.11,1.77.33c.53.22.99.53,1.38.92.39.39.69.86.9,1.4.21.54.32,1.14.32,1.8s-.11,1.24-.32,1.79c-.22.55-.52,1.02-.9,1.41-.38.39-.84.7-1.38.92-.53.22-1.12.33-1.77.33s-1.24-.11-1.77-.33c-.53-.22-1-.53-1.39-.92-.39-.39-.69-.86-.91-1.41-.21-.55-.32-1.15-.32-1.79Zm2.23,0c0,.4.05.76.16,1.08.11.32.25.6.44.83.19.23.41.41.68.54.27.13.56.2.88.2s.61-.06.87-.2c.26-.13.48-.31.67-.54.19-.23.33-.5.44-.83.11-.32.16-.68.16-1.08s-.05-.74-.16-1.07c-.11-.33-.25-.61-.44-.83-.19-.23-.41-.4-.67-.54-.26-.13-.55-.2-.87-.2s-.61.07-.88.2c-.27.13-.49.31-.68.54-.19.23-.33.5-.44.83-.11.33-.16.69-.16,1.07Z"/>
      <path class="cls-6" d="m396.82,575.28h2.18v.85c.63-.7,1.33-1.05,2.09-1.05.12,0,.24,0,.36.02.11.01.23.03.36.07v1.94c-.24-.07-.49-.1-.76-.1-.36,0-.72.09-1.08.28-.36.19-.68.46-.96.83v5.68h-2.18v-8.5Z"/>
      <path class="cls-6" d="m401.87,579.46c0-.65.1-1.23.31-1.77.21-.53.5-.99.88-1.39.37-.39.82-.69,1.33-.91s1.07-.32,1.68-.32c.56,0,1.06.11,1.52.31.46.21.85.5,1.18.88.33.37.58.82.77,1.34.18.52.27,1.09.27,1.72v.38c0,.13-.01.27-.03.42h-5.76c.07.65.34,1.17.81,1.57.47.4,1.06.6,1.78.6.4,0,.81-.07,1.23-.2.42-.14.86-.33,1.3-.6v1.82c-.97.44-1.94.66-2.89.66-.65,0-1.24-.11-1.77-.33-.53-.22-.99-.53-1.38-.93-.39-.4-.69-.88-.9-1.43-.21-.55-.32-1.16-.32-1.83Zm5.85-.75c-.03-.58-.21-1.05-.53-1.41-.32-.36-.72-.54-1.21-.54-.53,0-.98.18-1.34.54-.36.36-.57.83-.63,1.42h3.71Z"/>
      <path class="cls-6" d="m149.74,603.43c-.68.31-1.36.54-2.03.71-.67.17-1.35.25-2.03.25-.87,0-1.67-.15-2.4-.45-.73-.3-1.35-.72-1.88-1.25-.53-.53-.93-1.17-1.22-1.91s-.43-1.56-.43-2.44.14-1.7.43-2.44.69-1.38,1.22-1.91c.52-.53,1.14-.95,1.86-1.25.72-.3,1.51-.45,2.37-.45,1.22,0,2.43.31,3.62.94v2.07c-1.12-.79-2.22-1.19-3.3-1.19-.58,0-1.11.1-1.6.31-.49.21-.91.5-1.26.88s-.62.82-.82,1.33c-.19.52-.29,1.09-.29,1.71s.09,1.19.28,1.71c.19.52.45.96.79,1.33.34.37.74.67,1.21.88.47.21.99.31,1.56.31.29,0,.59-.04.9-.11.31-.07.61-.17.92-.3v-2.6h-2.48v-1.68h4.57v5.56Z"/>
      <path class="cls-6" d="m151.66,592.48h4.13c.59,0,1.14.09,1.64.28.5.19.93.44,1.29.77.36.33.64.72.84,1.18.2.46.31.97.31,1.52s-.1,1.06-.31,1.52c-.2.46-.48.85-.84,1.18-.36.33-.79.58-1.29.77-.5.18-1.05.27-1.64.27h-1.96v4.2h-2.18v-11.7Zm2.18,5.73h1.65c.63,0,1.15-.18,1.55-.54.4-.36.59-.84.59-1.43s-.2-1.08-.59-1.44c-.4-.36-.91-.54-1.55-.54h-1.65v3.96Z"/>
      <path class="cls-6" d="m171.23,599.81c0,.67-.12,1.28-.37,1.84-.25.56-.59,1.04-1.04,1.45-.44.4-.97.72-1.58.94s-1.28.34-2.01.34-1.41-.11-2.02-.34c-.61-.23-1.14-.54-1.58-.94-.44-.4-.79-.88-1.03-1.45-.24-.56-.37-1.18-.37-1.84v-7.33h2.21v7.17c0,.42.07.8.21,1.15.14.35.33.65.58.9.24.25.54.45.88.59.34.14.71.21,1.12.21s.78-.07,1.11-.21c.33-.14.63-.34.88-.59.25-.25.44-.55.58-.9.14-.35.2-.73.2-1.15v-7.17h2.23v7.33Z"/>
      <path class="cls-6" d="m176.99,597.43h-1.46v-1.75h1.46v-1.19c0-.41.07-.78.21-1.11.14-.33.34-.62.59-.86.25-.24.55-.42.89-.56.34-.14.73-.2,1.15-.2.57,0,1.16.11,1.78.34v1.8c-.42-.21-.82-.32-1.21-.32s-.67.11-.9.33-.34.51-.34.86v.92h2.14v1.75h-2.14v6.75h-2.18v-6.75Z"/>
      <path class="cls-6" d="m181.24,599.93c0-.66.11-1.26.32-1.8.22-.54.52-1.01.91-1.4.39-.39.85-.7,1.39-.92.53-.22,1.12-.33,1.77-.33s1.24.11,1.77.33c.53.22.99.53,1.38.92.39.39.69.86.9,1.4.21.54.32,1.14.32,1.8s-.11,1.24-.32,1.79c-.22.55-.52,1.02-.9,1.41-.38.39-.84.7-1.38.92-.53.22-1.12.33-1.77.33s-1.24-.11-1.77-.33c-.53-.22-1-.53-1.39-.92-.39-.39-.69-.86-.91-1.41-.21-.55-.32-1.15-.32-1.79Zm2.23,0c0,.4.05.76.16,1.08.11.32.25.6.44.83.19.23.41.41.68.54.27.13.56.2.88.2s.61-.06.87-.2c.26-.13.48-.31.67-.54.19-.23.33-.5.44-.83.11-.32.16-.68.16-1.08s-.05-.74-.16-1.07c-.11-.33-.25-.61-.44-.83-.19-.23-.41-.4-.67-.54-.26-.13-.55-.2-.87-.2s-.61.07-.88.2c-.27.13-.49.31-.68.54-.19.23-.33.5-.44.83-.11.33-.16.69-.16,1.07Z"/>
      <path class="cls-6" d="m191.08,595.68h2.18v.85c.63-.7,1.33-1.05,2.09-1.05.12,0,.24,0,.36.02.11.01.23.03.36.07v1.94c-.24-.07-.49-.1-.76-.1-.36,0-.72.09-1.08.28-.36.19-.68.46-.96.83v5.68h-2.18v-8.5Z"/>
      <path class="cls-6" d="m199.67,599.93c0-.66.11-1.26.32-1.8.22-.54.52-1.01.91-1.4.39-.39.85-.7,1.39-.92.53-.22,1.12-.33,1.77-.33s1.24.11,1.77.33c.53.22.99.53,1.38.92.39.39.69.86.9,1.4.21.54.32,1.14.32,1.8s-.11,1.24-.32,1.79c-.22.55-.52,1.02-.9,1.41-.38.39-.84.7-1.38.92-.53.22-1.12.33-1.77.33s-1.24-.11-1.77-.33c-.53-.22-1-.53-1.39-.92-.39-.39-.69-.86-.91-1.41-.21-.55-.32-1.15-.32-1.79Zm2.23,0c0,.4.05.76.16,1.08.11.32.25.6.44.83.19.23.41.41.68.54.27.13.56.2.88.2s.61-.06.87-.2c.26-.13.48-.31.67-.54.19-.23.33-.5.44-.83.11-.32.16-.68.16-1.08s-.05-.74-.16-1.07c-.11-.33-.25-.61-.44-.83-.19-.23-.41-.4-.67-.54-.26-.13-.55-.2-.87-.2s-.61.07-.88.2c-.27.13-.49.31-.68.54-.19.23-.33.5-.44.83-.11.33-.16.69-.16,1.07Z"/>
      <path class="cls-6" d="m209.51,595.68h2.18v.73c.78-.62,1.6-.94,2.47-.94.44,0,.84.07,1.21.22.37.15.69.36.96.63.27.27.48.59.63.97.15.37.22.79.22,1.24v5.64h-2.18v-5.25c0-.45-.14-.82-.42-1.11-.28-.29-.64-.43-1.08-.43-.65,0-1.25.3-1.82.9v5.9h-2.18v-8.5Z"/>
      <path class="cls-6" d="m218.06,598.98h4.35v1.75h-4.35v-1.75Z"/>
      <path class="cls-6" d="m231.19,604.18h-2.18v-.59c-.67.53-1.39.8-2.16.8-.57,0-1.08-.11-1.56-.33-.47-.22-.88-.53-1.22-.92-.34-.39-.6-.86-.79-1.4-.19-.54-.28-1.14-.28-1.8s.09-1.26.28-1.8c.19-.54.45-1.01.79-1.4.34-.39.75-.7,1.22-.92.47-.22.99-.33,1.56-.33.76,0,1.48.26,2.16.78v-4.3h2.18v12.22Zm-5.95-4.25c0,.77.19,1.39.58,1.87.38.48.89.71,1.51.71s1.18-.25,1.68-.76v-3.64c-.5-.51-1.06-.76-1.68-.76s-1.13.24-1.51.71c-.39.48-.58,1.1-.58,1.87Z"/>
      <path class="cls-6" d="m232.27,599.86c0-.65.1-1.23.31-1.77.21-.53.5-.99.88-1.39.37-.39.82-.69,1.33-.91s1.07-.32,1.68-.32c.56,0,1.06.11,1.52.31.46.21.85.5,1.18.88.33.37.58.82.77,1.34.18.52.27,1.09.27,1.72v.38c0,.13-.01.27-.03.42h-5.76c.07.65.34,1.17.81,1.57.47.4,1.06.6,1.78.6.4,0,.81-.07,1.23-.2.42-.14.86-.33,1.3-.6v1.82c-.97.44-1.94.66-2.89.66-.65,0-1.24-.11-1.77-.33-.53-.22-.99-.53-1.38-.93-.39-.4-.69-.88-.9-1.43-.21-.55-.32-1.16-.32-1.83Zm5.85-.75c-.03-.58-.21-1.05-.53-1.41-.32-.36-.72-.54-1.21-.54-.53,0-.98.18-1.34.54-.36.36-.57.83-.63,1.42h3.71Z"/>
      <path class="cls-6" d="m241.23,595.68h2.18v.68c.37-.31.76-.53,1.16-.67s.82-.21,1.25-.21c.51,0,.97.11,1.38.32.41.21.75.53,1.01.95.85-.85,1.79-1.28,2.82-1.28.42,0,.8.07,1.15.22.35.15.64.35.89.61s.44.57.58.94c.14.36.2.76.2,1.21v5.73h-2.18v-5.39c0-.41-.12-.75-.37-1.01-.24-.27-.56-.4-.96-.4-.28,0-.57.07-.87.21-.29.14-.58.36-.85.66v5.93h-2.18v-5.39c0-.41-.12-.75-.37-1.01s-.57-.4-.97-.4c-.28,0-.57.07-.87.21-.29.14-.58.36-.85.66v5.93h-2.18v-8.5Z"/>
      <path class="cls-6" d="m260.03,603.5c-.76.59-1.58.88-2.45.88-.4,0-.76-.06-1.09-.19-.33-.12-.61-.3-.85-.52-.24-.22-.42-.49-.56-.8-.14-.31-.2-.65-.2-1.03,0-.44.1-.85.3-1.22.2-.37.48-.68.84-.94.36-.26.79-.46,1.29-.61s1.05-.22,1.67-.22c.17,0,.34,0,.51,0s.35.01.54.03v-.39c0-.4-.15-.72-.44-.97-.29-.25-.68-.37-1.16-.37-.44,0-.9.07-1.38.2-.48.14-.96.34-1.45.61v-1.8c.52-.24,1.04-.41,1.55-.53.51-.11,1.02-.17,1.53-.17s.99.08,1.41.23c.42.15.78.37,1.07.65.29.28.52.61.69.99.16.39.25.8.25,1.26v5.58h-2.07v-.68Zm-3.01-1.96c0,.34.12.62.36.83.24.21.54.32.92.32.29,0,.59-.07.89-.22.3-.15.58-.35.84-.61v-1.67c-.31-.03-.62-.05-.95-.05-.61,0-1.11.13-1.49.39s-.57.59-.57,1Z"/>
      <path class="cls-6" d="m263.71,595.68h2.18v.73c.78-.62,1.6-.94,2.47-.94.44,0,.84.07,1.21.22.37.15.69.36.96.63.27.27.48.59.63.97.15.37.22.79.22,1.24v5.64h-2.18v-5.25c0-.45-.14-.82-.42-1.11-.28-.29-.64-.43-1.08-.43-.65,0-1.25.3-1.82.9v5.9h-2.18v-8.5Z"/>
      <path class="cls-6" d="m280.57,604.18h-2.18v-.59c-.67.53-1.39.8-2.16.8-.57,0-1.08-.11-1.56-.33-.47-.22-.88-.53-1.22-.92-.34-.39-.6-.86-.79-1.4-.19-.54-.28-1.14-.28-1.8s.09-1.26.28-1.8c.19-.54.45-1.01.79-1.4.34-.39.75-.7,1.22-.92.47-.22.99-.33,1.56-.33.76,0,1.48.26,2.16.78v-4.3h2.18v12.22Zm-5.95-4.25c0,.77.19,1.39.58,1.87.38.48.89.71,1.51.71s1.18-.25,1.68-.76v-3.64c-.5-.51-1.06-.76-1.68-.76s-1.13.24-1.51.71c-.39.48-.58,1.1-.58,1.87Z"/>
      <path class="cls-6" d="m285.19,599.93c0-.66.11-1.26.32-1.8.22-.54.52-1.01.9-1.4.38-.39.84-.7,1.38-.92.53-.22,1.12-.33,1.77-.33.85,0,1.71.2,2.57.59v1.96c-.75-.49-1.47-.73-2.18-.73-.37,0-.71.07-1.02.2-.31.13-.57.31-.8.54-.23.23-.4.5-.53.83-.12.33-.19.69-.19,1.07s.06.74.19,1.06c.12.32.3.6.53.83s.49.41.8.54c.31.13.65.2,1.02.2.7,0,1.43-.24,2.18-.73v1.96c-.86.4-1.72.59-2.57.59-.65,0-1.24-.11-1.77-.33-.53-.22-.99-.53-1.38-.92-.39-.39-.69-.86-.9-1.41-.21-.55-.32-1.15-.32-1.79Z"/>
      <path class="cls-6" d="m293.3,591.96h2.18v12.22h-2.18v-12.22Z"/>
      <path class="cls-6" d="m296.57,599.93c0-.66.11-1.26.32-1.8.22-.54.52-1.01.91-1.4.39-.39.85-.7,1.39-.92.53-.22,1.12-.33,1.77-.33s1.24.11,1.77.33c.53.22.99.53,1.38.92.39.39.69.86.9,1.4.21.54.32,1.14.32,1.8s-.11,1.24-.32,1.79c-.22.55-.52,1.02-.9,1.41-.38.39-.84.7-1.38.92-.53.22-1.12.33-1.77.33s-1.24-.11-1.77-.33c-.53-.22-1-.53-1.39-.92-.39-.39-.69-.86-.91-1.41-.21-.55-.32-1.15-.32-1.79Zm2.23,0c0,.4.05.76.16,1.08.11.32.25.6.44.83.19.23.41.41.68.54.27.13.56.2.88.2s.61-.06.87-.2c.26-.13.48-.31.67-.54.19-.23.33-.5.44-.83.11-.32.16-.68.16-1.08s-.05-.74-.16-1.07c-.11-.33-.25-.61-.44-.83-.19-.23-.41-.4-.67-.54-.26-.13-.55-.2-.87-.2s-.61.07-.88.2c-.27.13-.49.31-.68.54-.19.23-.33.5-.44.83-.11.33-.16.69-.16,1.07Z"/>
      <path class="cls-6" d="m314.01,604.18h-2.18v-.75c-.77.63-1.59.95-2.46.95-.44,0-.85-.08-1.22-.23s-.69-.37-.96-.64c-.27-.27-.47-.59-.62-.97s-.22-.78-.22-1.22v-5.64h2.18v5.25c0,.44.14.81.42,1.11.28.29.64.44,1.08.44.63,0,1.24-.3,1.82-.9v-5.9h2.18v8.5Z"/>
      <path class="cls-6" d="m323.27,604.18h-2.18v-.59c-.67.53-1.39.8-2.16.8-.57,0-1.08-.11-1.56-.33-.47-.22-.88-.53-1.22-.92-.34-.39-.6-.86-.79-1.4-.19-.54-.28-1.14-.28-1.8s.09-1.26.28-1.8c.19-.54.45-1.01.79-1.4.34-.39.75-.7,1.22-.92.47-.22.99-.33,1.56-.33.76,0,1.48.26,2.16.78v-4.3h2.18v12.22Zm-5.95-4.25c0,.77.19,1.39.58,1.87.38.48.89.71,1.51.71s1.18-.25,1.68-.76v-3.64c-.5-.51-1.06-.76-1.68-.76s-1.13.24-1.51.71c-.39.48-.58,1.1-.58,1.87Z"/>
      <path class="cls-6" d="m327.9,599.93c0-.66.11-1.26.32-1.8.22-.54.52-1.01.9-1.4.38-.39.84-.7,1.38-.92.53-.22,1.12-.33,1.77-.33.85,0,1.71.2,2.57.59v1.96c-.75-.49-1.47-.73-2.18-.73-.37,0-.71.07-1.02.2-.31.13-.57.31-.8.54-.23.23-.4.5-.53.83-.12.33-.19.69-.19,1.07s.06.74.19,1.06c.12.32.3.6.53.83s.49.41.8.54c.31.13.65.2,1.02.2.7,0,1.43-.24,2.18-.73v1.96c-.86.4-1.72.59-2.57.59-.65,0-1.24-.11-1.77-.33-.53-.22-.99-.53-1.38-.92-.39-.39-.69-.86-.9-1.41-.21-.55-.32-1.15-.32-1.79Z"/>
      <path class="cls-6" d="m335.29,599.93c0-.66.11-1.26.32-1.8.22-.54.52-1.01.91-1.4.39-.39.85-.7,1.39-.92.53-.22,1.12-.33,1.77-.33s1.24.11,1.77.33c.53.22.99.53,1.38.92.39.39.69.86.9,1.4.21.54.32,1.14.32,1.8s-.11,1.24-.32,1.79c-.22.55-.52,1.02-.9,1.41-.38.39-.84.7-1.38.92-.53.22-1.12.33-1.77.33s-1.24-.11-1.77-.33c-.53-.22-1-.53-1.39-.92-.39-.39-.69-.86-.91-1.41-.21-.55-.32-1.15-.32-1.79Zm2.23,0c0,.4.05.76.16,1.08.11.32.25.6.44.83.19.23.41.41.68.54.27.13.56.2.88.2s.61-.06.87-.2c.26-.13.48-.31.67-.54.19-.23.33-.5.44-.83.11-.32.16-.68.16-1.08s-.05-.74-.16-1.07c-.11-.33-.25-.61-.44-.83-.19-.23-.41-.4-.67-.54-.26-.13-.55-.2-.87-.2s-.61.07-.88.2c-.27.13-.49.31-.68.54-.19.23-.33.5-.44.83-.11.33-.16.69-.16,1.07Z"/>
      <path class="cls-6" d="m345.14,595.68h2.18v.68c.37-.31.76-.53,1.16-.67s.82-.21,1.25-.21c.51,0,.97.11,1.38.32.41.21.75.53,1.01.95.85-.85,1.79-1.28,2.82-1.28.42,0,.8.07,1.15.22.35.15.64.35.89.61s.44.57.58.94c.14.36.2.76.2,1.21v5.73h-2.18v-5.39c0-.41-.12-.75-.37-1.01-.24-.27-.56-.4-.96-.4-.28,0-.57.07-.87.21-.29.14-.58.36-.85.66v5.93h-2.18v-5.39c0-.41-.12-.75-.37-1.01s-.57-.4-.97-.4c-.28,0-.57.07-.87.21-.29.14-.58.36-.85.66v5.93h-2.18v-8.5Z"/>
      <path class="cls-6" d="m359.36,595.68h2.18v.58c.69-.52,1.41-.78,2.16-.78.57,0,1.08.11,1.55.33.47.22.88.53,1.22.92.34.39.6.86.79,1.4.19.54.28,1.14.28,1.8s-.09,1.26-.28,1.8c-.19.54-.45,1.01-.79,1.4-.34.39-.75.7-1.22.92-.47.22-.99.33-1.55.33-.75,0-1.47-.27-2.16-.8v4.32h-2.18v-12.22Zm5.95,4.25c0-.38-.05-.74-.15-1.05-.1-.32-.24-.59-.43-.82-.18-.23-.4-.4-.65-.53-.25-.12-.54-.19-.84-.19-.62,0-1.19.25-1.7.76v3.64c.51.51,1.08.76,1.7.76.31,0,.59-.06.84-.19.25-.12.47-.3.65-.53.18-.23.32-.5.43-.82.1-.32.15-.67.15-1.05Z"/>
      <path class="cls-6" d="m376.23,604.18h-2.18v-.75c-.77.63-1.59.95-2.46.95-.44,0-.85-.08-1.22-.23s-.69-.37-.96-.64c-.27-.27-.47-.59-.62-.97s-.22-.78-.22-1.22v-5.64h2.18v5.25c0,.44.14.81.42,1.11.28.29.64.44,1.08.44.63,0,1.24-.3,1.82-.9v-5.9h2.18v8.5Z"/>
      <path class="cls-6" d="m380.65,595.68h2.45v1.75h-2.45v3.93c0,.35.11.64.34.87s.53.34.9.34c.35,0,.75-.11,1.21-.34v1.8c-.61.24-1.21.36-1.78.36-.42,0-.8-.07-1.15-.2-.35-.14-.64-.33-.89-.57-.25-.24-.45-.53-.59-.87s-.21-.7-.21-1.1v-4.22h-1.46v-1.75h1.46v-2.4h2.18v2.4Z"/>
      <path class="cls-6" d="m383.52,599.86c0-.65.1-1.23.31-1.77.21-.53.5-.99.88-1.39.37-.39.82-.69,1.33-.91s1.07-.32,1.68-.32c.56,0,1.06.11,1.52.31.46.21.85.5,1.18.88.33.37.58.82.77,1.34.18.52.27,1.09.27,1.72v.38c0,.13-.01.27-.03.42h-5.76c.07.65.34,1.17.81,1.57.47.4,1.06.6,1.78.6.4,0,.81-.07,1.23-.2.42-.14.86-.33,1.3-.6v1.82c-.97.44-1.94.66-2.89.66-.65,0-1.24-.11-1.77-.33-.53-.22-.99-.53-1.38-.93-.39-.4-.69-.88-.9-1.43-.21-.55-.32-1.16-.32-1.83Zm5.85-.75c-.03-.58-.21-1.05-.53-1.41-.32-.36-.72-.54-1.21-.54-.53,0-.98.18-1.34.54-.36.36-.57.83-.63,1.42h3.71Z"/>
    </g>
    <g>
      <path class="cls-3" d="m55,36.35c-.66-.07-1.33-.21-2.02-.4s-1.36-.44-2.02-.75v-3.29c1.63,1.08,3.25,1.62,4.88,1.62.9,0,1.62-.21,2.18-.63s.84-.97.84-1.65c0-.57-.2-1.01-.6-1.33-.4-.32-.9-.6-1.51-.84-.6-.24-1.26-.47-1.97-.7-.71-.23-1.37-.53-1.97-.9-.6-.37-1.11-.86-1.51-1.47-.4-.6-.6-1.4-.6-2.39,0-1.21.39-2.23,1.17-3.08.78-.85,1.82-1.42,3.14-1.71v-4.2h3.04v4c.58.05,1.18.16,1.78.32s1.21.37,1.81.64v3.21c-1.46-.9-2.94-1.34-4.44-1.34-.86,0-1.56.19-2.1.58-.54.38-.81.9-.81,1.54,0,.53.2.95.6,1.25.4.3.9.57,1.51.79.6.23,1.26.46,1.97.7.71.24,1.37.55,1.97.93.6.38,1.11.89,1.51,1.51.4.62.6,1.44.6,2.44,0,1.26-.4,2.33-1.19,3.21-.79.88-1.87,1.47-3.22,1.78v4.17h-3.04v-4Z"/>
      <path class="cls-3" d="m72.85,32.24h-8.12v-2.22l8.64-11.96h2.88v11.46h2.8v2.71h-2.8v4.69h-3.4v-4.69Zm0-2.71v-6.55l-4.72,6.55h4.72Z"/>
      <path class="cls-3" d="m80.99,35.15c0-.62.2-1.12.59-1.51.39-.38.9-.58,1.52-.58s1.13.19,1.52.58c.39.38.59.89.59,1.51s-.2,1.13-.59,1.52c-.39.39-.9.59-1.52.59s-1.13-.2-1.52-.59c-.39-.39-.59-.9-.59-1.52Z"/>
      <path class="cls-3" d="m93.82,21.93l-4.61,2.55v-3.24l5.81-3.18h2.39v18.87h-3.59v-15Z"/>
      <path class="cls-3" d="m102.6,27.49c0-1.44.17-2.76.52-3.96.35-1.2.83-2.23,1.45-3.08.62-.86,1.36-1.53,2.23-2,.87-.48,1.83-.71,2.89-.71s1.99.24,2.86.71c.87.48,1.61,1.14,2.23,2,.62.86,1.1,1.89,1.45,3.08.35,1.2.52,2.52.52,3.96s-.17,2.77-.52,3.96c-.35,1.2-.83,2.23-1.45,3.08-.62.86-1.36,1.53-2.23,2-.87.48-1.82.71-2.86.71s-2.02-.24-2.89-.71c-.87-.48-1.61-1.14-2.23-2-.62-.86-1.1-1.89-1.45-3.08-.35-1.2-.52-2.52-.52-3.96Zm3.51,0c0,1.02.08,1.95.25,2.78.17.83.4,1.54.71,2.13.31.58.69,1.04,1.13,1.36s.94.48,1.49.48,1.02-.16,1.46-.48.82-.77,1.13-1.36.55-1.29.72-2.13c.17-.83.25-1.76.25-2.78s-.08-1.95-.25-2.78c-.17-.83-.4-1.54-.72-2.12s-.69-1.04-1.13-1.36-.93-.48-1.46-.48-1.05.16-1.49.48-.82.77-1.13,1.36c-.31.58-.55,1.29-.71,2.12-.17.83-.25,1.76-.25,2.78Z"/>
    </g>
    <g>
      <path class="cls-3" d="m234.54,180.22c-.66-.07-1.33-.21-2.02-.4s-1.36-.44-2.02-.75v-3.29c1.63,1.08,3.25,1.62,4.88,1.62.9,0,1.62-.21,2.18-.63s.84-.97.84-1.65c0-.57-.2-1.01-.6-1.33-.4-.32-.9-.6-1.51-.84-.6-.24-1.26-.47-1.97-.7-.71-.23-1.37-.53-1.97-.9-.6-.37-1.11-.86-1.51-1.47-.4-.6-.6-1.4-.6-2.39,0-1.21.39-2.23,1.17-3.08.78-.85,1.82-1.42,3.14-1.71v-4.2h3.04v4c.58.05,1.18.16,1.78.32s1.21.37,1.81.64v3.21c-1.46-.9-2.94-1.34-4.44-1.34-.86,0-1.56.19-2.1.58-.54.38-.81.9-.81,1.54,0,.53.2.95.6,1.25.4.3.9.57,1.51.79.6.23,1.26.46,1.97.7.71.24,1.37.55,1.97.93.6.38,1.11.89,1.51,1.51.4.62.6,1.44.6,2.44,0,1.26-.4,2.33-1.19,3.21-.79.88-1.87,1.47-3.22,1.78v4.17h-3.04v-4Z"/>
      <path class="cls-3" d="m248.82,169.83h.88c1.04,0,1.88-.26,2.52-.77.64-.51.96-1.18.96-2,0-.75-.27-1.36-.81-1.82-.54-.47-1.25-.7-2.12-.7-.71,0-1.43.12-2.15.36-.72.24-1.45.58-2.18,1.01v-3.21c1.57-.73,3.14-1.1,4.72-1.1.9,0,1.72.12,2.48.37.76.25,1.4.6,1.93,1.06.53.46.95,1,1.25,1.63.3.63.45,1.33.45,2.1,0,.99-.27,1.87-.8,2.65-.53.78-1.25,1.33-2.17,1.66,1.04.37,1.87.97,2.47,1.81.6.84.91,1.81.91,2.91,0,.79-.16,1.51-.48,2.17-.32.66-.78,1.22-1.37,1.69-.59.47-1.3.83-2.11,1.1-.81.26-1.71.4-2.7.4-1.65,0-3.32-.4-5.02-1.21v-3.26c1.57,1.02,3.09,1.54,4.55,1.54,1.04,0,1.89-.25,2.54-.75.65-.5.97-1.17.97-1.99s-.33-1.53-1-2.06c-.67-.53-1.55-.8-2.65-.8h-1.07v-2.77Z"/>
      <path class="cls-3" d="m260.53,179.01c0-.62.2-1.12.59-1.51.39-.38.9-.58,1.52-.58s1.13.19,1.52.58c.39.38.59.89.59,1.51s-.2,1.13-.59,1.52c-.39.39-.9.59-1.52.59s-1.13-.2-1.52-.59c-.39-.39-.59-.9-.59-1.52Z"/>
      <path class="cls-3" d="m274.68,176.11h-8.12v-2.22l8.64-11.96h2.88v11.46h2.8v2.71h-2.8v4.69h-3.4v-4.69Zm0-2.71v-6.55l-4.72,6.55h4.72Z"/>
      <path class="cls-3" d="m283.07,166.86c0-.77.15-1.48.45-2.12s.72-1.21,1.26-1.67c.54-.47,1.19-.83,1.95-1.08s1.59-.38,2.51-.38,1.75.13,2.5.38c.75.26,1.39.62,1.93,1.08s.96,1.02,1.26,1.67.45,1.36.45,2.12c0,.99-.25,1.86-.75,2.62-.5.76-1.19,1.31-2.07,1.66,1,.35,1.8.93,2.39,1.74.58.81.88,1.76.88,2.84,0,.8-.16,1.54-.48,2.19s-.77,1.23-1.34,1.7c-.58.48-1.27.85-2.08,1.11-.81.26-1.71.4-2.67.4s-1.88-.13-2.69-.4c-.8-.27-1.5-.64-2.08-1.11-.59-.48-1.04-1.04-1.36-1.7-.32-.66-.48-1.39-.48-2.19,0-1.08.29-2.02.88-2.84.58-.81,1.38-1.39,2.39-1.74-.88-.35-1.57-.9-2.07-1.66-.5-.76-.75-1.63-.75-2.62Zm3.04,8.58c0,.82.28,1.51.85,2.06.57.55,1.33.82,2.28.82s1.68-.27,2.25-.82.85-1.23.85-2.06-.28-1.53-.85-2.07c-.57-.54-1.32-.81-2.25-.81s-1.71.27-2.28.81c-.57.54-.85,1.23-.85,2.07Zm.27-8.34c0,.8.26,1.46.77,1.96.51.5,1.21.75,2.08.75s1.54-.25,2.06-.75c.51-.5.77-1.16.77-1.96s-.26-1.43-.77-1.95c-.51-.51-1.2-.77-2.06-.77s-1.57.26-2.08.77c-.51.51-.77,1.16-.77,1.95Z"/>
    </g>
    <g>
      <path class="cls-5" d="m415.54,314.22c-.66-.07-1.33-.21-2.02-.4s-1.36-.44-2.02-.75v-3.29c1.63,1.08,3.25,1.62,4.88,1.62.9,0,1.62-.21,2.18-.63s.84-.97.84-1.65c0-.57-.2-1.01-.6-1.33-.4-.32-.9-.6-1.51-.84-.6-.24-1.26-.47-1.97-.7-.71-.23-1.37-.53-1.97-.9-.6-.37-1.11-.86-1.51-1.47-.4-.6-.6-1.4-.6-2.39,0-1.21.39-2.23,1.17-3.08.78-.85,1.82-1.42,3.14-1.71v-4.2h3.04v4c.58.05,1.18.16,1.78.32s1.21.37,1.81.64v3.21c-1.46-.9-2.94-1.34-4.44-1.34-.86,0-1.56.19-2.1.58-.54.38-.81.9-.81,1.54,0,.53.2.95.6,1.25.4.3.9.57,1.51.79.6.23,1.26.46,1.97.7.71.24,1.37.55,1.97.93.6.38,1.11.89,1.51,1.51.4.62.6,1.44.6,2.44,0,1.26-.4,2.33-1.19,3.21-.79.88-1.87,1.47-3.22,1.78v4.17h-3.04v-4Z"/>
      <path class="cls-5" d="m432.07,299.79l-4.61,2.55v-3.24l5.81-3.18h2.39v18.87h-3.59v-15Z"/>
      <path class="cls-5" d="m441.53,313.01c0-.62.2-1.12.59-1.51.39-.38.9-.58,1.52-.58s1.13.19,1.52.58c.39.38.59.89.59,1.51s-.2,1.13-.59,1.52c-.39.39-.9.59-1.52.59s-1.13-.2-1.52-.59c-.39-.39-.59-.9-.59-1.52Z"/>
      <path class="cls-5" d="m448.52,312.55c1.44-1.26,2.67-2.41,3.69-3.44,1.01-1.03,1.84-1.98,2.48-2.84.64-.86,1.11-1.65,1.41-2.36s.45-1.38.45-2c0-.95-.3-1.72-.89-2.32-.59-.59-1.36-.89-2.29-.89-.69,0-1.42.15-2.17.44-.75.29-1.5.73-2.25,1.32v-3.32c1.72-1.02,3.53-1.54,5.43-1.54.84,0,1.62.14,2.34.43.72.28,1.34.68,1.85,1.19s.91,1.12,1.21,1.81c.29.7.44,1.46.44,2.3,0,.71-.13,1.45-.4,2.22-.26.77-.68,1.58-1.23,2.43-.56.85-1.27,1.75-2.14,2.71-.87.96-1.9,1.99-3.08,3.08h7.05v3.02h-11.9v-2.25Z"/>
      <path class="cls-5" d="m465.96,314.79c1.59-1.24,2.93-2.51,4.02-3.8,1.09-1.29,1.92-2.57,2.51-3.85-.97.66-2.01.99-3.11.99-.88,0-1.68-.15-2.39-.44s-1.33-.7-1.84-1.23-.91-1.17-1.2-1.91c-.28-.74-.43-1.55-.43-2.43,0-.95.16-1.83.49-2.63.33-.8.8-1.49,1.4-2.07s1.32-1.02,2.16-1.34c.83-.32,1.75-.48,2.73-.48s1.83.18,2.64.54c.81.36,1.49.85,2.06,1.48.57.63,1.01,1.39,1.33,2.29.32.9.48,1.87.48,2.93,0,2.03-.55,4.07-1.65,6.11-1.1,2.05-2.68,3.99-4.75,5.84h-4.47Zm7.25-11.02c.04-.22.06-.44.08-.67.02-.23.03-.46.03-.7,0-1.11-.29-2.02-.86-2.73-.57-.7-1.31-1.06-2.2-1.06-.95,0-1.72.31-2.32.93-.6.62-.9,1.44-.9,2.44,0,.93.28,1.7.85,2.3.56.6,1.31.9,2.24.9,1.07,0,2.1-.48,3.08-1.43Z"/>
    </g>
  </g>
</svg>