<?xml version="1.0" encoding="utf-8"?>
<!-- Generator: Adobe Illustrator 27.1.1, SVG Export Plug-In . SVG Version: 6.00 Build 0)  -->
<svg version="1.1" id="Layer_2_00000165914449122412810220000016285341779008985254_"
	 xmlns="http://www.w3.org/2000/svg" xmlns:xlink="http://www.w3.org/1999/xlink" x="0px" y="0px" viewBox="0 0 336 88"
	 style="enable-background:new 0 0 336 88;" xml:space="preserve">
<style type="text/css">
	.st0{fill-rule:evenodd;clip-rule:evenodd;fill:#B2B2B2;}
</style>
<g>
	<path id="a" class="st0" d="M167.5,0c6.4,0,11.6,5.2,11.6,11.6c0,6.4-5.2,11.6-11.6,11.6c0,0,0,0,0,0c-6.4,0-11.6-5.2-11.6-11.6
		C155.9,5.2,161.1,0,167.5,0z M167.5,17.5c3.3,0,5.9-2.7,5.9-5.9c0-3.3-2.7-5.9-5.9-5.9c0,0,0,0,0,0c-3.3,0-5.9,2.7-5.9,5.9
		C161.5,14.8,164.2,17.5,167.5,17.5z M164.5,87.2V34.7h5.9v52.5H164.5z M3.7,87.2V34.7h5.9v52.5H3.7z M54.1,34.7h5.3v52.5h-6.7
		L34.5,43.3v43.9h-5.3V34.7h7.1l17.8,42.6L54.1,34.7L54.1,34.7z M233.6,87.2V34.7h5.9v52.5C239.6,87.2,233.6,87.2,233.6,87.2z
		 M331.2,40h-18.8v16.8h17.4v5.3h-17.4v19.8h18.8v5.3h-24.5V34.7h24.5C331.2,34.7,331.2,40,331.2,40z M284,34.7h6.1l-13.6,52.5h-6.9
		l-12.8-52.5h6.1l10.2,46.1L284,34.7L284,34.7z M187,34.7h29.2V40h-11.7v47.2h-5.9V40H187C187,40,187,34.7,187,34.7z M73,34.7h29.2
		V40H90.6v47.2h-5.9V40H73L73,34.7L73,34.7z M140.2,34.7h5.7v38.9c-0.2,7.9-6.5,14.4-14.4,14.4s-14.2-6.5-14.4-14.4V34.7h5.9v39
		c0.1,4.7,3.8,8.6,8.6,8.6c4.7,0,8.5-3.9,8.6-8.6C140.2,73.7,140.2,34.7,140.2,34.7z"/>
</g>
</svg>
