<?xml version="1.0" encoding="utf-8"?>
<!-- Generator: Adobe Illustrator 26.4.1, SVG Export Plug-In . SVG Version: 6.00 Build 0)  -->
<svg version="1.1" id="Layer_1" xmlns="http://www.w3.org/2000/svg" xmlns:xlink="http://www.w3.org/1999/xlink" x="0px" y="0px"
	 viewBox="0 0 530 500" style="enable-background:new 0 0 530 500;" xml:space="preserve">
<style type="text/css">
	.st0{fill:#A13023;}
	.st1{fill:#E95420;}
	.st2{fill:#FFFFFF;}
	.st3{fill:#D00000;}
	.st4{fill:#4E4E4E;}
	.st5{fill:#767677;}
	.st6{fill:#F37726;}
	.st7{fill:#989798;}
	.st8{fill:#6F7070;}
	.st9{clip-path:url(#SVGID_00000159433727129259111830000011837278181603978903_);}
	.st10{fill:url(#SVGID_00000132064369650538450690000016037552574304968596_);}
	.st11{clip-path:url(#SVGID_00000001623711590571052970000007077978949505646508_);}
	.st12{fill:url(#SVGID_00000009564305507313685670000002907365919802069654_);}
	.st13{fill:#425066;}
	.st14{fill:#EE4C2C;}
</style>
<path class="st0" d="M261.5,316.5h-1l-1.9,5c-0.3,0.3-0.7,0.5-1.2,0.5c-0.7,0.1-1.5,0.2-2.2,0.2c-1.5,0-3-0.3-4.5-0.9
	c-1.3-0.6-2.4-1.4-3.3-2.5c-1-1.2-1.7-2.5-2.1-3.9c-0.5-1.7-0.7-3.4-0.7-5.2c0-1.9,0.2-3.7,0.8-5.5c0.5-1.4,1.2-2.8,2.2-3.9
	c0.8-1,1.9-1.8,3.1-2.3c1.2-0.5,2.5-0.8,3.8-0.7c0.7,0,1.3,0,2,0.1c0.5,0,1,0.1,1.5,0.3l2.1,5.8h1c0.1-0.5,0.2-1.1,0.2-1.7
	c0.1-0.6,0.1-1.2,0.2-1.9c0.1-0.7,0.1-1.3,0.1-1.8s0-1.1,0-1.5c-1-0.5-2.1-0.8-3.2-1c-1.5-0.2-3-0.4-4.5-0.3c-1.7,0-3.5,0.3-5.1,0.8
	c-1.6,0.5-3.1,1.4-4.3,2.6c-1.3,1.3-2.3,2.8-2.9,4.5c-0.8,2.1-1.1,4.4-1.1,6.7c0,2.2,0.3,4.4,1,6.5c0.6,1.7,1.5,3.3,2.8,4.5
	c1.3,1.2,2.8,2.1,4.5,2.6c2,0.6,4,0.9,6,0.9c0.6,0,1.2,0,1.9-0.1c0.6-0.1,1.3-0.1,1.9-0.3c0.6-0.1,1.2-0.3,1.8-0.5
	c0.5-0.2,1-0.4,1.4-0.8c0.1-1.1,0-2.2-0.1-3.3C261.8,318.2,261.7,317.2,261.5,316.5z M280.9,320.1c0-0.4,0-0.9,0-1.5
	c0-1.4,0-2.8,0.1-4.3s0.1-3,0.1-4.6c0-0.8-0.1-1.5-0.2-2.3c-0.1-0.7-0.4-1.4-0.9-2.1c-0.5-0.7-1.1-1.2-1.9-1.5
	c-1-0.4-2.2-0.6-3.3-0.6c-1.4,0-2.8,0.2-4.2,0.5c-1.2,0.3-2.3,0.8-3.4,1.4c0.1,0.9,0.2,1.7,0.4,2.5c0.2,0.9,0.4,1.7,0.7,2.5h1
	l1.9-4.8c0.4-0.2,0.9-0.3,1.4-0.3c0.5,0,0.9-0.1,1.2-0.1c0.7,0,1.4,0.2,2,0.5c0.5,0.4,0.9,0.9,1.1,1.5c0.3,0.8,0.4,1.6,0.4,2.4
	c0,1,0,2.1-0.1,3.1c-1.9,0.1-3.5,0.3-4.9,0.5c-1.2,0.1-2.4,0.5-3.6,1c-0.9,0.4-1.7,1-2.2,1.9c-0.5,0.9-0.8,2-0.7,3
	c-0.1,1.5,0.5,2.9,1.5,3.9c1.1,1,2.5,1.6,4,1.5c1.5,0,2.9-0.5,4-1.4c0.5-0.4,0.9-0.9,1.2-1.5c0.3-0.5,0.5-1.1,0.6-1.6h0.2
	c0,0.9,0,1.7,0.1,2.4c0,0.7,0.2,1.4,0.5,2h1c0.8-0.1,1.6-0.3,2.4-0.6c0.8-0.2,1.5-0.6,2.2-0.9v-0.9l-2.8-0.4
	C281,321,281,320.5,280.9,320.1z M277.5,318.3c-0.1,0.3-0.3,0.7-0.4,1c-0.2,0.4-0.5,0.8-0.9,1.2c-0.4,0.4-0.8,0.7-1.3,0.9
	c-0.5,0.3-1.1,0.4-1.8,0.4c-0.9,0-1.8-0.3-2.4-0.9c-0.6-0.7-0.9-1.7-0.9-2.6c0-0.6,0.1-1.2,0.3-1.8c0.2-0.6,0.7-1.1,1.2-1.4
	c0.7-0.4,1.5-0.7,2.3-0.8c1.3-0.2,2.5-0.3,3.8-0.2L277.5,318.3z M292.9,298.3c0.1-0.7,0.4-1.4,0.8-2c0.3-0.4,0.8-0.8,1.4-0.9
	c0.7-0.2,1.3-0.3,2-0.2l1.8,3.5h1c0.2-0.7,0.4-1.4,0.5-2.1c0.1-0.8,0.3-1.6,0.3-2.5c-0.3-0.1-0.6-0.2-0.9-0.2
	c-0.3-0.1-0.7-0.1-1-0.2l-0.9-0.1c-0.3,0-0.6,0-0.9,0c-1.1,0-2.1,0.1-3.2,0.4c-0.9,0.2-1.8,0.7-2.5,1.3c-0.8,0.7-1.4,1.6-1.7,2.6
	c-0.4,1.3-0.6,2.7-0.6,4.1v1.4c-1.1,0.3-2.1,0.8-3.1,1.4v1.1h3.1v16.1c-0.9,0.2-1.8,0.5-2.6,1v1h10.1v-1c-1.2-0.5-2.5-0.8-3.9-1
	v-16.1h4.6v-2.1h-4.6v-2C292.6,300.5,292.7,299.4,292.9,298.3z M314.5,294.1c-0.3-0.1-0.6-0.2-0.9-0.2c-0.3-0.1-0.6-0.1-1-0.2
	l-1-0.1c-0.3,0-0.6,0-0.9,0c-1.1,0-2.1,0.1-3.2,0.4c-0.9,0.2-1.8,0.7-2.5,1.3c-0.8,0.7-1.4,1.6-1.7,2.6c-0.4,1.3-0.6,2.7-0.6,4.1
	v1.4c-1.1,0.3-2.1,0.8-3.1,1.4v1.1h3.1v16.1c-0.9,0.2-1.8,0.5-2.6,1v1h10.1v-1c-1.2-0.5-2.5-0.8-3.9-1v-16.1h4.6v-2.1h-4.6v-2
	c0-1.1,0.1-2.3,0.3-3.4c0.1-0.7,0.4-1.4,0.8-2c0.3-0.4,0.8-0.8,1.4-0.9c0.7-0.2,1.3-0.3,2-0.2l1.8,3.5h1c0.2-0.7,0.4-1.4,0.5-2.1
	C314.3,295.8,314.4,295,314.5,294.1z M329.9,307.3c-0.4-0.9-1-1.7-1.8-2.4c-0.7-0.6-1.5-1-2.4-1.3c-0.9-0.3-1.8-0.4-2.8-0.4
	c-2.5-0.1-5,0.8-6.7,2.7c-1.6,1.8-2.4,4.4-2.4,7.8c0,1.5,0.2,2.9,0.6,4.3c0.4,1.2,1,2.4,1.8,3.3c0.8,0.9,1.9,1.7,3,2.1
	c1.3,0.5,2.8,0.8,4.2,0.7c0.7,0,1.4-0.1,2.1-0.3c0.7-0.2,1.3-0.4,1.9-0.7c0.6-0.3,1.1-0.6,1.6-1c0.4-0.4,0.8-0.8,1-1.3l-0.6-0.6
	c-0.6,0.5-1.4,0.9-2.2,1c-0.9,0.3-1.9,0.4-2.9,0.4c-1,0-2.1-0.2-3-0.6c-0.8-0.4-1.6-1-2.1-1.7c-0.6-0.8-1-1.6-1.3-2.6
	c-0.3-1-0.4-2.1-0.4-3.2h12.6c0.1-0.5,0.2-1,0.2-1.5c0-0.5,0.1-0.9,0.1-1.4C330.7,309.6,330.4,308.4,329.9,307.3L329.9,307.3z
	 M326.8,311.3c0,0.2,0,0.5-0.1,0.7h-8.8c0.2-2.6,0.6-4.4,1.4-5.5c0.9-1.1,2.2-1.6,3.5-1.5c1.2-0.1,2.3,0.5,2.9,1.5
	c0.7,1.2,1,2.7,1,4.1C326.8,310.8,326.8,311,326.8,311.3z"/>
<g>
	<path d="M43.8,323.3c-0.8,0.2-1.9,0.4-3.3,0.6c-1.4,0.2-2.9,0.4-4.7,0.4c-1.6,0-2.9-0.2-4-0.7c-1.1-0.5-1.9-1.1-2.6-1.9
		s-1.1-1.8-1.4-2.9c-0.3-1.1-0.4-2.4-0.4-3.8v-11.4H31v10.6c0,2.5,0.4,4.2,1.1,5.3c0.8,1.1,2.1,1.6,4,1.6c0.4,0,0.8,0,1.2,0
		c0.4,0,0.8,0,1.1-0.1c0.4,0,0.7-0.1,1-0.1c0.3,0,0.5-0.1,0.6-0.1v-17.2h3.6L43.8,323.3z"/>
	<path d="M52.7,304.4c0.5-0.3,1.1-0.6,2-0.9c0.9-0.3,1.9-0.5,3.1-0.5c1.5,0,2.8,0.3,3.9,0.8s2.1,1.2,2.9,2.2
		c0.8,0.9,1.4,2.1,1.8,3.4s0.6,2.7,0.6,4.3c0,1.7-0.2,3.1-0.7,4.4c-0.5,1.3-1.1,2.4-2.1,3.4c-0.9,0.9-1.9,1.6-3.2,2.1
		c-1.2,0.5-2.7,0.7-4.2,0.7c-1.7,0-3.2-0.1-4.5-0.4c-1.3-0.2-2.4-0.5-3.2-0.7v-29.1l3.6-0.6L52.7,304.4z M52.7,320.7
		c0.4,0.1,0.9,0.2,1.6,0.3c0.6,0.1,1.5,0.1,2.5,0.1c1.9,0,3.5-0.6,4.7-1.9c1.1-1.3,1.7-3.1,1.7-5.5c0-1.1-0.1-2-0.3-2.9
		s-0.6-1.7-1-2.3s-1.1-1.2-1.8-1.6c-0.7-0.4-1.7-0.6-2.7-0.6s-1.9,0.2-2.7,0.5c-0.8,0.3-1.5,0.7-1.9,1.1L52.7,320.7L52.7,320.7z"/>
	<path d="M87.2,323.3c-0.8,0.2-1.9,0.4-3.3,0.6c-1.4,0.2-2.9,0.4-4.7,0.4c-1.6,0-2.9-0.2-4-0.7c-1.1-0.5-1.9-1.1-2.6-1.9
		s-1.1-1.8-1.4-2.9c-0.3-1.1-0.4-2.4-0.4-3.8v-11.4h3.6v10.6c0,2.5,0.4,4.2,1.1,5.3c0.8,1.1,2.1,1.6,4,1.6c0.4,0,0.8,0,1.2,0
		c0.4,0,0.8,0,1.1-0.1c0.4,0,0.7-0.1,1-0.1s0.5-0.1,0.6-0.1v-17.2h3.6L87.2,323.3z"/>
	<path d="M92.4,304.2c0.8-0.2,1.9-0.4,3.3-0.6c1.4-0.2,3-0.4,4.8-0.4c1.6,0,2.9,0.2,4,0.7c1.1,0.5,1.9,1.1,2.6,1.9s1.1,1.8,1.3,2.9
		c0.3,1.1,0.4,2.4,0.4,3.8v11.4h-3.6v-10.7c0-1.2-0.1-2.3-0.3-3.2c-0.2-0.9-0.5-1.6-0.8-2.2c-0.4-0.6-0.9-1-1.6-1.2
		s-1.5-0.4-2.4-0.4c-0.4,0-0.8,0-1.2,0s-0.8,0-1.2,0.1c-0.4,0-0.7,0.1-1,0.1c-0.3,0-0.5,0.1-0.6,0.1v17.2h-3.6L92.4,304.2z"/>
	<path d="M117.2,303.6h7.7v3h-7.7v9.4c0,1,0.1,1.8,0.2,2.5c0.1,0.6,0.4,1.2,0.7,1.6c0.3,0.4,0.7,0.6,1.1,0.8s1,0.2,1.7,0.2
		c1.1,0,2-0.1,2.7-0.4c0.6-0.2,1.1-0.4,1.3-0.5l0.8,3c-0.4,0.2-1,0.4-1.9,0.7c-0.9,0.3-2,0.4-3.1,0.4c-1.4,0-2.5-0.2-3.4-0.5
		c-0.9-0.4-1.6-0.9-2.2-1.6c-0.6-0.7-0.9-1.6-1.1-2.6s-0.3-2.2-0.3-3.6v-18.2l3.6-0.6L117.2,303.6z"/>
	<path d="M144.7,323.3c-0.8,0.2-1.9,0.4-3.3,0.6c-1.4,0.2-2.9,0.4-4.7,0.4c-1.6,0-2.9-0.2-4-0.7c-1.1-0.5-1.9-1.1-2.6-1.9
		s-1.1-1.8-1.4-2.9c-0.3-1.1-0.4-2.4-0.4-3.8v-11.4h3.6v10.6c0,2.5,0.4,4.2,1.1,5.3c0.8,1.1,2.1,1.6,4,1.6c0.4,0,0.8,0,1.2,0
		c0.4,0,0.8,0,1.1-0.1c0.4,0,0.7-0.1,1-0.1c0.3,0,0.5-0.1,0.6-0.1v-17.2h3.6L144.7,323.3L144.7,323.3z"/>
	<circle class="st1" cx="156.3" cy="301.8" r="8.2"/>
	<path class="st2" d="M152,301.8c0,0.6-0.5,1.1-1.1,1.1s-1.1-0.5-1.1-1.1c0-0.6,0.5-1.1,1.1-1.1S152,301.2,152,301.8z M158,306.9
		c0.3,0.5,0.9,0.7,1.4,0.4c0.5-0.3,0.7-0.9,0.4-1.4c-0.3-0.5-0.9-0.7-1.4-0.4C157.9,305.8,157.7,306.4,158,306.9z M159.8,297.7
		c0.3-0.5,0.1-1.1-0.4-1.4c-0.5-0.3-1.1-0.1-1.4,0.4c-0.3,0.5-0.1,1.1,0.4,1.4C158.9,298.4,159.5,298.2,159.8,297.7z M156.3,298.7
		c1.6,0,2.9,1.2,3,2.8l1.5,0c-0.1-1.1-0.6-2.2-1.3-2.9c-0.4,0.1-0.9,0.1-1.3-0.1c-0.4-0.2-0.6-0.6-0.7-1.1c-0.4-0.1-0.8-0.1-1.2-0.1
		c-0.7,0-1.4,0.2-2,0.5l0.7,1.3C155.4,298.9,155.8,298.7,156.3,298.7z M153.2,301.8c0-1,0.5-1.9,1.3-2.5l-0.8-1.3
		c-0.9,0.6-1.6,1.5-1.9,2.6c0.3,0.3,0.6,0.7,0.6,1.1c0,0.5-0.2,0.9-0.6,1.1c0.3,1.1,1,2,1.9,2.6l0.8-1.3
		C153.7,303.7,153.2,302.8,153.2,301.8z M156.3,304.8c-0.5,0-0.9-0.1-1.3-0.3l-0.7,1.3c0.6,0.3,1.3,0.5,2,0.5c0.4,0,0.8,0,1.2-0.1
		c0-0.4,0.3-0.8,0.7-1.1c0.4-0.2,0.9-0.3,1.3-0.1c0.8-0.7,1.2-1.8,1.3-2.9l-1.5,0C159.1,303.6,157.8,304.8,156.3,304.8z"/>
</g>
<g>
	<path class="st3" d="M412.9,293.5h30.8v30.8h-30.8V293.5z"/>
	<path class="st2" d="M424.3,317.3v-5.7l2.3-2.3l5.8,8.6l2.7,0l0.5-1l-6.8-9.8l6.2-6.3l-0.3-1h-2.7l-7.8,7.8v-7.2l-0.6-0.6h-1.9
		l-0.6,0.6v17l0.6,0.6l1.9,0L424.3,317.3z"/>
	<path d="M453.2,299.7h2.3v9.1h0.1l7.6-9.1h2.6l-5.7,6.9l6.6,11.2H464l-5.4-9.4l-3.1,3.7v5.8h-2.3L453.2,299.7L453.2,299.7z
		 M467.8,311.2c0-1.1,0.2-2.1,0.5-3c0.3-0.9,0.8-1.6,1.4-2.2c0.6-0.6,1.2-1.1,1.9-1.4c0.7-0.3,1.5-0.5,2.2-0.5
		c0.8,0,1.6,0.1,2.3,0.4c0.7,0.3,1.2,0.7,1.7,1.3c0.5,0.6,0.8,1.2,1,2c0.2,0.8,0.4,1.6,0.4,2.6c0,0.5,0,0.9-0.1,1.2H470
		c0.1,1.5,0.5,2.6,1.3,3.5c0.8,0.8,1.8,1.3,3.1,1.3c0.6,0,1.2-0.1,1.8-0.3c0.5-0.2,1.1-0.5,1.6-0.8l0.8,1.5c-0.6,0.4-1.2,0.7-2,1
		c-0.7,0.3-1.5,0.4-2.5,0.4c-0.9,0-1.7-0.2-2.5-0.5c-0.8-0.3-1.5-0.8-2-1.4c-0.6-0.6-1-1.3-1.4-2.2
		C467.9,313.3,467.8,312.3,467.8,311.2L467.8,311.2z M477.2,310.2c0-1.4-0.3-2.4-0.9-3.2c-0.6-0.7-1.4-1.1-2.4-1.1
		c-0.5,0-0.9,0.1-1.4,0.3s-0.8,0.5-1.2,0.8c-0.4,0.4-0.6,0.8-0.9,1.3c-0.2,0.5-0.4,1.1-0.5,1.8H477.2z M482.5,304.4h1.9l0.2,2.4h0.1
		c0.5-0.8,1-1.5,1.7-2c0.7-0.5,1.4-0.7,2.1-0.7c0.5,0,1,0.1,1.4,0.3l-0.4,2c-0.2-0.1-0.4-0.1-0.6-0.2c-0.2,0-0.4-0.1-0.7-0.1
		c-0.6,0-1.2,0.2-1.8,0.7c-0.6,0.5-1.2,1.3-1.6,2.4v8.6h-2.3L482.5,304.4L482.5,304.4z M490.7,314.4c0-1.5,0.7-2.6,2-3.4
		c1.3-0.8,3.4-1.3,6.3-1.6c0-0.4,0-0.8-0.1-1.2c-0.1-0.4-0.2-0.8-0.4-1.1c-0.2-0.3-0.5-0.6-0.8-0.8c-0.4-0.2-0.8-0.3-1.4-0.3
		c-0.8,0-1.5,0.1-2.2,0.4c-0.7,0.3-1.3,0.6-1.8,1l-0.9-1.6c0.6-0.4,1.4-0.8,2.3-1.2c0.9-0.4,1.9-0.6,3-0.6c1.6,0,2.8,0.5,3.6,1.5
		c0.7,1,1.1,2.3,1.1,4v8.2h-1.9l-0.2-1.6h-0.1c-0.6,0.5-1.3,1-2.1,1.4c-0.7,0.4-1.5,0.6-2.4,0.6c-1.1,0-2.1-0.3-2.8-1
		C491.1,316.5,490.7,315.6,490.7,314.4L490.7,314.4z M493,314.2c0,0.8,0.2,1.3,0.7,1.7c0.5,0.3,1,0.5,1.7,0.5c0.6,0,1.3-0.2,1.8-0.5
		c0.6-0.3,1.2-0.8,1.8-1.3v-3.7c-1.1,0.1-2.1,0.3-2.9,0.5s-1.4,0.4-1.9,0.7c-0.5,0.3-0.8,0.6-1,1C493.1,313.4,493,313.8,493,314.2
		L493,314.2z M505.2,314.8c0.6,0.5,1.2,0.9,1.8,1.2c0.6,0.3,1.3,0.4,2.1,0.4c0.9,0,1.6-0.2,2-0.6c0.4-0.4,0.7-0.9,0.7-1.5
		c0-0.4-0.1-0.7-0.3-0.9c-0.2-0.3-0.4-0.5-0.7-0.7c-0.3-0.2-0.6-0.4-1-0.5l-1.1-0.4c-0.5-0.2-1-0.4-1.4-0.6
		c-0.5-0.2-0.9-0.5-1.3-0.8c-0.4-0.3-0.7-0.7-0.9-1.1c-0.2-0.4-0.4-0.9-0.4-1.5c0-0.5,0.1-1,0.3-1.5c0.2-0.5,0.5-0.9,0.9-1.2
		c0.4-0.3,0.9-0.6,1.5-0.8c0.6-0.2,1.2-0.3,1.9-0.3c0.8,0,1.6,0.1,2.3,0.4c0.7,0.3,1.3,0.7,1.8,1.1l-1.1,1.4
		c-0.5-0.4-0.9-0.6-1.4-0.9c-0.5-0.2-1-0.3-1.6-0.3c-0.8,0-1.5,0.2-1.9,0.6c-0.4,0.4-0.6,0.8-0.6,1.4c0,0.3,0.1,0.6,0.2,0.8
		c0.2,0.2,0.4,0.4,0.7,0.6c0.3,0.2,0.6,0.3,1,0.5c0.4,0.1,0.7,0.3,1.1,0.4c0.5,0.2,1,0.4,1.5,0.6c0.5,0.2,0.9,0.5,1.3,0.8
		c0.4,0.3,0.7,0.7,1,1.1c0.2,0.4,0.4,1,0.4,1.6c0,0.6-0.1,1.1-0.3,1.6c-0.2,0.5-0.5,0.9-0.9,1.3c-0.4,0.4-0.9,0.7-1.6,0.9
		c-0.6,0.2-1.3,0.3-2.1,0.3c-1,0-1.9-0.2-2.7-0.5c-0.9-0.4-1.6-0.8-2.3-1.3L505.2,314.8L505.2,314.8z"/>
</g>
<g>
	<g>
		<path class="st4" d="M262.3,223.8c0,3.2-0.2,4.2-0.9,5c-0.7,0.6-1.6,1-2.6,1l0.2,1.9c1.5,0,2.9-0.5,4-1.5c1.2-1.2,1.6-2.9,1.6-5.4
			v-12h-2.4L262.3,223.8L262.3,223.8z"/>
		<path class="st4" d="M279.9,222.4c0,1.4,0,2.6,0.1,3.6H278l-0.1-2.2h-0.1c-0.4,0.8-1.1,1.4-1.8,1.8c-0.8,0.4-1.6,0.7-2.5,0.6
			c-2,0-4.5-1.1-4.5-5.8v-7.7h2.4v7.3c0,2.5,0.8,4.2,2.9,4.2c0.7,0,1.3-0.2,1.9-0.6c0.6-0.4,1-0.9,1.2-1.6c0.1-0.4,0.2-0.8,0.2-1.2
			v-8.1h2.4L279.9,222.4L279.9,222.4z"/>
		<path class="st4" d="M284.4,217.1c0-1.7-0.1-3.1-0.1-4.3h2.1l0.1,2.3h0.1c0.5-0.8,1.1-1.5,2-1.9c0.8-0.5,1.7-0.7,2.7-0.6
			c3.1,0,5.5,2.7,5.5,6.7c0,4.7-2.8,7.1-5.9,7.1c-0.8,0-1.6-0.1-2.3-0.5c-0.7-0.4-1.3-0.9-1.7-1.6h-0.1v7.2h-2.3L284.4,217.1
			L284.4,217.1z M286.7,220.6c0,0.3,0,0.7,0.1,1c0.2,0.8,0.6,1.5,1.3,2c0.6,0.5,1.4,0.8,2.3,0.8c2.5,0,3.9-2.1,3.9-5.1
			c0-2.6-1.4-4.9-3.9-4.9c-0.8,0-1.6,0.3-2.3,0.9c-0.6,0.5-1.1,1.3-1.3,2.1c-0.1,0.3-0.1,0.6-0.2,1V220.6L286.7,220.6z"/>
		<path class="st4" d="M300.8,212.8l2.8,7.8c0.3,0.9,0.6,1.9,0.8,2.7h0.1c0.2-0.8,0.5-1.8,0.8-2.8l2.6-7.7h2.5l-3.5,9.4
			c-1.7,4.5-2.8,6.8-4.5,8.3c-0.8,0.8-1.8,1.3-2.9,1.6l-0.6-2c0.8-0.3,1.5-0.7,2.1-1.2c0.9-0.7,1.5-1.6,2-2.7
			c0.1-0.2,0.2-0.4,0.2-0.6c0-0.2-0.1-0.4-0.2-0.6l-4.8-12.2L300.8,212.8L300.8,212.8z"/>
		<path class="st4" d="M316.7,209v3.8h3.4v1.8h-3.4v7.1c0,1.6,0.5,2.6,1.8,2.6c0.5,0,0.9,0,1.4-0.2l0.1,1.8
			c-0.7,0.2-1.4,0.3-2.1,0.3c-0.5,0-0.9,0-1.4-0.2s-0.8-0.4-1.2-0.8c-0.7-0.7-0.9-1.9-0.9-3.4v-7.2h-2v-1.8h2v-3.2L316.7,209z"/>
		<path class="st4" d="M324.4,219.8c0.1,3.2,2.1,4.6,4.5,4.6c1.2,0,2.5-0.2,3.6-0.7l0.4,1.7c-1.4,0.6-2.8,0.9-4.3,0.8
			c-4,0-6.4-2.7-6.4-6.7c0-4,2.3-7.1,6.1-7.1c4.2,0,5.4,3.8,5.4,6.2c0,0.4,0,0.7-0.1,1.1H324.4L324.4,219.8z M331.3,218.1
			c0-1.5-0.6-3.9-3.3-3.9c-2.4,0-3.4,2.2-3.6,3.9H331.3L331.3,218.1z"/>
		<path class="st4" d="M337,216.9c0-1.6,0-2.9-0.1-4.1h2.1l0.1,2.6h0.1c0.6-1.8,2-2.9,3.6-2.9c0.2,0,0.5,0,0.7,0.1v2.3
			c-0.3-0.1-0.5-0.1-0.8-0.1c-1.7,0-2.8,1.3-3.2,3.1c-0.1,0.4-0.1,0.7-0.1,1.1v7H337V216.9z"/>
	</g>
	<path class="st5" d="M250.4,206.6c0,0.4-0.1,0.7-0.3,1s-0.5,0.6-0.8,0.7c-0.3,0.2-0.7,0.2-1,0.1c-0.4-0.1-0.7-0.2-0.9-0.5
		c-0.3-0.2-0.5-0.6-0.5-0.9s-0.1-0.7,0.1-1.1c0.1-0.3,0.3-0.6,0.6-0.8c0.3-0.2,0.6-0.3,1-0.4c0.5,0,0.9,0.2,1.3,0.5
		C250.2,205.6,250.4,206.1,250.4,206.6z"/>
	<path class="st6" d="M239.8,228.1c-4.8,0-9.1-1.8-11.2-4.4c0.8,2.4,2.3,4.4,4.4,5.8c2,1.4,4.4,2.2,6.9,2.2s4.9-0.8,6.9-2.2
		c2-1.4,3.5-3.5,4.4-5.8C248.9,226.3,244.7,228.1,239.8,228.1z"/>
	<path class="st6" d="M239.8,211.1c4.8,0,9.1,1.8,11.2,4.4c-0.8-2.4-2.3-4.4-4.4-5.8c-2-1.4-4.4-2.2-6.9-2.2s-4.9,0.8-6.9,2.2
		c-2,1.4-3.5,3.5-4.4,5.8C230.8,212.8,235,211.1,239.8,211.1z"/>
	<path class="st7" d="M233.2,233.2c0,0.5-0.1,0.9-0.3,1.3c-0.2,0.4-0.6,0.7-1,0.9c-0.4,0.2-0.9,0.3-1.3,0.2
		c-0.4-0.1-0.9-0.3-1.2-0.6c-0.3-0.3-0.6-0.7-0.7-1.2c-0.1-0.4-0.1-0.9,0.1-1.3c0.2-0.4,0.4-0.8,0.8-1.1c0.4-0.3,0.8-0.4,1.3-0.4
		c0.6,0,1.2,0.2,1.6,0.6C232.9,232,233.2,232.6,233.2,233.2z"/>
	<path class="st8" d="M229.2,210.5c-0.3,0-0.5-0.1-0.8-0.2c-0.2-0.1-0.4-0.3-0.5-0.6c-0.1-0.2-0.2-0.5-0.1-0.8
		c0-0.3,0.2-0.5,0.3-0.7c0.2-0.2,0.4-0.3,0.7-0.4s0.5,0,0.8,0s0.5,0.3,0.6,0.5c0.2,0.2,0.2,0.5,0.3,0.7c0,0.4-0.1,0.7-0.4,1
		C229.8,210.3,229.5,210.5,229.2,210.5z"/>
</g>
<g>
	<g>
		<g>
			<g>
				<defs>
					<polygon id="SVGID_1_" points="32.5,212.3 19.3,204.8 19.3,235.6 24.6,232.6 24.6,223.9 28.6,226.2 28.5,220.3 24.6,218 
						24.6,214.6 32.5,219.2 					"/>
				</defs>
				<clipPath id="SVGID_00000081621465134454393410000007789804145973545094_">
					<use xlink:href="#SVGID_1_"  style="overflow:visible;"/>
				</clipPath>
				<g style="clip-path:url(#SVGID_00000081621465134454393410000007789804145973545094_);">
					
						<linearGradient id="SVGID_00000114060933847395684630000000354634155329222836_" gradientUnits="userSpaceOnUse" x1="3.7716" y1="-22.1948" x2="36.0608" y2="-22.1948" gradientTransform="matrix(1 0 0 -1 0 198)">
						<stop  offset="0" style="stop-color:#FF6F00"/>
						<stop  offset="1" style="stop-color:#FFA800"/>
					</linearGradient>
					<path style="fill:url(#SVGID_00000114060933847395684630000000354634155329222836_);" d="M3.8,204.7h32.3v30.9H3.8V204.7z"/>
				</g>
			</g>
		</g>
	</g>
	<g>
		<g>
			<g>
				<defs>
					<polygon id="SVGID_00000042698358580662179700000002064361416100789180_" points="5,212.3 18.2,204.8 18.2,235.6 12.9,232.6 
						12.9,214.6 5,219.2 					"/>
				</defs>
				<clipPath id="SVGID_00000104677470811868437260000005991418902695732615_">
					<use xlink:href="#SVGID_00000042698358580662179700000002064361416100789180_"  style="overflow:visible;"/>
				</clipPath>
				<g style="clip-path:url(#SVGID_00000104677470811868437260000005991418902695732615_);">
					
						<linearGradient id="SVGID_00000160898686100094904420000004536277938954005691_" gradientUnits="userSpaceOnUse" x1="3.5961" y1="-22.1948" x2="35.8853" y2="-22.1948" gradientTransform="matrix(1 0 0 -1 0 198)">
						<stop  offset="0" style="stop-color:#FF6F00"/>
						<stop  offset="1" style="stop-color:#FFA800"/>
					</linearGradient>
					<path style="fill:url(#SVGID_00000160898686100094904420000004536277938954005691_);" d="M3.6,204.7h32.3v30.9H3.6V204.7z"/>
				</g>
			</g>
		</g>
	</g>
	<path class="st13" d="M56.3,214.4h-5.8v16.2h-3.3v-16.2h-5.8v-2.6h15V214.4z"/>
	<path class="st13" d="M60.2,230.8c-2,0-3.6-0.6-4.9-1.9c-1.2-1.2-1.9-2.9-1.9-5v-0.4c0-1.3,0.2-2.6,0.8-3.7
		c0.5-1.1,1.3-1.9,2.3-2.6c1-0.6,2.1-0.9,3.3-0.9c1.9,0,3.4,0.6,4.4,1.8c1.1,1.2,1.6,2.9,1.6,5.1v1.3h-9.2c0.1,1.1,0.5,2,1.2,2.7
		c0.7,0.7,1.6,1.1,2.6,1c1.4,0.1,2.7-0.6,3.5-1.8l1.7,1.6c-0.6,0.8-1.3,1.5-2.2,1.9C62.4,230.6,61.3,230.9,60.2,230.8z M59.9,218.8
		c-0.8-0.1-1.6,0.3-2.1,0.9c-0.6,0.7-0.9,1.6-1,2.5h6V222c-0.1-1.1-0.4-1.9-0.8-2.4C61.4,219.1,60.6,218.8,59.9,218.8z M71.2,216.5
		l0.1,1.6c1-1.2,2.5-1.9,4.1-1.9c2.9,0,4.4,1.7,4.4,5v9.2h-3.2v-9.1c0-0.9-0.2-1.5-0.6-2c-0.4-0.4-1-0.6-1.9-0.6
		c-1.2-0.1-2.3,0.6-2.9,1.7v9.9h-3.2v-14C68.2,216.5,71.2,216.5,71.2,216.5z M90.1,226.8c0-0.5-0.2-1-0.7-1.3
		c-0.7-0.4-1.5-0.6-2.3-0.8c-0.9-0.2-1.8-0.5-2.7-0.9c-1.6-0.8-2.3-1.9-2.3-3.3c0-1.2,0.6-2.3,1.5-3c1-0.8,2.3-1.2,3.9-1.2
		c1.7,0,3,0.4,4,1.2c1,0.8,1.6,2,1.5,3.2h-3.2c0-0.6-0.2-1.1-0.7-1.5c-0.5-0.4-1.1-0.6-1.8-0.6c-0.6,0-1.2,0.1-1.7,0.5
		c-0.4,0.3-0.6,0.8-0.6,1.3c0,0.5,0.2,0.9,0.6,1.1c0.4,0.3,1.2,0.5,2.5,0.8c1,0.2,2,0.5,2.9,1c0.6,0.3,1.2,0.8,1.6,1.3
		c0.4,0.6,0.5,1.2,0.5,1.9c0,1.2-0.6,2.3-1.6,3c-1.1,0.8-2.4,1.2-4.1,1.2c-1.1,0-2.1-0.2-3-0.6c-0.8-0.4-1.6-0.9-2.1-1.7
		c-0.5-0.7-0.8-1.5-0.8-2.3h3c0,0.6,0.3,1.3,0.8,1.7c0.6,0.4,1.3,0.6,2,0.6c0.8,0,1.5-0.2,1.9-0.5C89.8,227.7,90.1,227.2,90.1,226.8
		L90.1,226.8z M94.8,223.4c0-1.3,0.2-2.6,0.8-3.7c0.5-1.1,1.3-1.9,2.3-2.5c1.1-0.6,2.2-0.9,3.4-0.9c1.9,0,3.5,0.6,4.6,1.8
		s1.8,2.8,1.9,4.9v0.8c0,1.3-0.2,2.5-0.8,3.7c-0.5,1.1-1.3,1.9-2.3,2.5c-1.1,0.6-2.2,0.9-3.5,0.9c-2,0-3.6-0.6-4.7-2
		c-1.2-1.3-1.8-3-1.8-5.3L94.8,223.4z M97.9,223.7c0,1.5,0.3,2.6,0.9,3.4c1.1,1.3,3,1.6,4.4,0.6c0.2-0.2,0.4-0.4,0.6-0.6
		c0.6-0.8,0.9-2,0.9-3.6c0-1.4-0.3-2.5-0.9-3.4c-1-1.3-2.9-1.6-4.3-0.6c-0.2,0.2-0.5,0.4-0.6,0.6C98.2,220.9,97.9,222.1,97.9,223.7z
		 M117.3,219.5c-0.4-0.1-0.9-0.1-1.3-0.1c-1.5,0-2.4,0.5-2.9,1.6v9.6h-3.2v-14h3l0.1,1.6c0.8-1.2,1.8-1.8,3.2-1.8
		c0.4,0,0.8,0.1,1.1,0.2L117.3,219.5L117.3,219.5z M130.4,222.6h-7.6v8h-3.3v-18.8h12v2.6h-8.7v5.6h7.6V222.6z M136.7,230.6h-3.2
		v-18.9h3.2C136.7,211.7,136.7,230.6,136.7,230.6z M139,223.4c0-1.3,0.2-2.6,0.8-3.7c0.5-1.1,1.3-1.9,2.3-2.5
		c1.1-0.6,2.2-0.9,3.4-0.9c1.9,0,3.5,0.6,4.6,1.8c1.2,1.2,1.8,2.8,1.9,4.9v0.8c0,1.3-0.2,2.5-0.8,3.7c-0.5,1.1-1.3,1.9-2.3,2.5
		c-1.1,0.6-2.2,0.9-3.5,0.9c-2,0-3.6-0.6-4.7-2c-1.2-1.3-1.8-3-1.8-5.3L139,223.4L139,223.4z M142.1,223.7c0,1.5,0.3,2.6,0.9,3.4
		c0.6,0.8,1.5,1.3,2.5,1.2c1,0.1,1.9-0.4,2.5-1.2c0.6-0.8,0.9-2,0.9-3.6c0-1.4-0.3-2.5-0.9-3.4c-1-1.3-2.9-1.6-4.3-0.6
		c-0.2,0.2-0.5,0.4-0.6,0.6C142.4,220.9,142.1,222.1,142.1,223.7z M166.2,226.2l2.2-9.7h3l-3.8,14h-2.6l-3-9.7l-3,9.7h-2.6l-3.9-14
		h3.1l2.3,9.6l2.9-9.6h2.4L166.2,226.2L166.2,226.2z"/>
</g>
<g>
	<g>
		<path class="st14" d="M417.1,211.9l-1.7,1.7c2.8,2.8,2.8,7.2,0,9.9c-2.8,2.8-7.2,2.8-9.9,0c-2.8-2.8-2.8-7.2,0-9.9l0,0l4.4-4.4
			l0.6-0.6l0,0v-3.3l-6.6,6.6c-3.7,3.7-3.7,9.6,0,13.3s9.6,3.7,13.2,0C420.7,221.5,420.7,215.5,417.1,211.9z"/>
		<circle class="st14" cx="413.7" cy="210.2" r="1.2"/>
	</g>
	<g>
		<g>
			<path d="M434.1,220.3h-2.8v7.3h-2.2v-20.8c0,0,4.9,0,5.2,0c5.5,0,8.1,2.7,8.1,6.5C442.5,217.9,439.3,220.3,434.1,220.3z
				 M434.4,208.9c-0.2,0-3,0-3,0v9.6l2.9-0.1c3.9-0.1,6.1-1.6,6.1-4.8C440.4,210.5,438.2,208.9,434.4,208.9z"/>
			<path d="M452.1,227.5l-1.2,3.3c-1.4,3.7-2.8,4.8-4.9,4.8c-1.2,0-2-0.3-2.9-0.7l0.6-1.9c0.7,0.4,1.5,0.7,2.3,0.7
				c1.2,0,2-0.6,3.2-3.5l1-2.7l-5.9-15h2.2l4.8,12.6l4.7-12.6h2.2L452.1,227.5z"/>
			<path d="M465,208.9v18.8h-2.2v-18.8h-7.3v-2h16.7v2C472.2,208.9,465,208.9,465,208.9z"/>
			<path d="M478.3,228.1c-4.2,0-7.3-3.2-7.3-8s3.2-8.1,7.5-8.1c4.3,0,7.3,3.2,7.3,8C485.8,224.8,482.6,228.1,478.3,228.1z
				 M478.4,213.9c-3.2,0-5.3,2.5-5.3,6.1c0,3.7,2.2,6.2,5.4,6.2c3.2,0,5.3-2.5,5.3-6.1C483.8,216.4,481.6,213.9,478.4,213.9z"/>
			<path d="M491,227.7h-2.1v-15.2l2.1-0.5v3.2c1-1.9,2.5-3.2,4.5-3.2c1,0,1.9,0.3,2.7,0.7l-0.5,1.9c-0.7-0.4-1.5-0.7-2.3-0.7
				c-1.6,0-3.1,1.2-4.3,3.9V227.7L491,227.7z"/>
			<path d="M506.3,228.1c-4.6,0-7.5-3.3-7.5-8c0-4.8,3.2-8.1,7.5-8.1c1.8,0,3.5,0.5,4.8,1.3l-0.5,1.8c-1.2-0.8-2.6-1.2-4.2-1.2
				c-3.3,0-5.3,2.5-5.3,6.1c0,3.7,2.2,6.1,5.4,6.1c1.5,0,3.1-0.5,4.2-1.2l0.5,1.9C509.6,227.6,508,228.1,506.3,228.1z"/>
			<path d="M523.7,227.7v-9.9c0-2.7-1.1-3.8-3.2-3.8c-1.8,0-3.5,0.9-4.7,2.2v11.6h-2.1v-22.4l2.1-0.5c0,0,0,9.6,0,9.6
				c1.6-1.6,3.6-2.4,5.3-2.4c2.9,0,4.8,1.9,4.8,5.2v10.4L523.7,227.7L523.7,227.7z"/>
		</g>
	</g>
</g>
</svg>
